<svg width="18" height="20" viewBox="0 0 18 20" fill="none" xmlns="http://www.w3.org/2000/svg">
<path d="M16.919 17.0256H1.78669C1.18974 17.0256 0.705811 17.5096 0.705811 18.1065C0.705811 18.7035 1.18974 19.1874 1.78669 19.1874H16.919C17.516 19.1874 17.9999 18.7035 17.9999 18.1065C17.9999 17.5096 17.516 17.0256 16.919 17.0256Z" fill="white"/>
<path d="M0.705811 15.9449V18.1066C0.705811 18.7036 1.18974 19.1875 1.78669 19.1875C2.38365 19.1875 2.86758 18.7036 2.86758 18.1066V15.9449C2.86758 15.3479 2.38365 14.864 1.78669 14.864C1.18974 14.864 0.705811 15.3479 0.705811 15.9449Z" fill="white"/>
<path d="M15.8381 15.9449V18.1066C15.8381 18.7036 16.3221 19.1875 16.919 19.1875C17.516 19.1875 17.9999 18.7036 17.9999 18.1066V15.9449C17.9999 15.3479 17.516 14.864 16.919 14.864C16.3221 14.864 15.8381 15.3479 15.8381 15.9449Z" fill="white"/>
<path d="M9.35272 13.7831C9.12863 13.7848 8.90956 13.7168 8.72581 13.5885L4.40228 10.5404C4.16925 10.3751 4.01115 10.1243 3.96254 9.84275C3.91393 9.56121 3.97876 9.27188 4.14287 9.038C4.22478 8.9211 4.32904 8.82159 4.44963 8.7452C4.57021 8.66881 4.70473 8.61706 4.84542 8.59295C4.98612 8.56883 5.13019 8.57281 5.26933 8.60468C5.40847 8.63654 5.53993 8.69565 5.6561 8.77859L9.35272 11.3619L13.0277 8.59484C13.2571 8.42284 13.5453 8.34899 13.8291 8.38953C14.1129 8.43007 14.369 8.58168 14.541 8.81102C14.713 9.04035 14.7868 9.32862 14.7463 9.61241C14.7057 9.8962 14.5541 10.1523 14.3248 10.3243L10.0013 13.5669C9.81415 13.7072 9.58659 13.7831 9.35272 13.7831Z" fill="white"/>
<path d="M9.35286 11.6213C9.06619 11.6213 8.79126 11.5074 8.58856 11.3047C8.38585 11.102 8.27197 10.8271 8.27197 10.5404V1.89338C8.27197 1.60671 8.38585 1.33179 8.58856 1.12908C8.79126 0.926378 9.06619 0.8125 9.35286 0.8125C9.63952 0.8125 9.91445 0.926378 10.1172 1.12908C10.3199 1.33179 10.4337 1.60671 10.4337 1.89338V10.5404C10.4337 10.8271 10.3199 11.102 10.1172 11.3047C9.91445 11.5074 9.63952 11.6213 9.35286 11.6213Z" fill="white"/>
</svg>
