<svg width="21" height="22" viewBox="0 0 21 22" fill="none" xmlns="http://www.w3.org/2000/svg">
<path d="M4.93561 16.7818C4.76059 16.7468 4.62057 16.7118 4.44555 16.6418C4.27053 16.5718 4.13051 16.5368 3.99049 16.4668C3.67545 16.3268 3.39542 16.1518 3.11538 15.9417C2.55531 15.5567 2.10026 15.0316 1.75022 14.4016C1.40017 13.8065 1.19015 13.1064 1.15514 12.4413C1.12014 12.0913 1.15514 11.7762 1.19015 11.4262C1.22515 11.2512 1.26015 11.1111 1.29516 10.9361C1.33016 10.7611 1.40017 10.6211 1.43518 10.4461L1.47018 10.9361C1.47018 11.1111 1.50519 11.2512 1.54019 11.4262C1.57519 11.7412 1.6452 12.0563 1.71521 12.3363C1.85523 12.9314 2.06525 13.4914 2.38029 14.0165C2.69533 14.5416 3.04537 15.0316 3.50043 15.4867C3.71046 15.6967 3.95549 15.9067 4.20052 16.1168C4.30553 16.2218 4.44555 16.3268 4.58556 16.4318L4.93561 16.7818ZM4.83059 18.042C4.72558 18.112 4.58556 18.147 4.44555 18.182C4.30553 18.217 4.20052 18.252 4.0605 18.252C3.81547 18.287 3.53543 18.322 3.2554 18.287C2.73034 18.252 2.17027 18.112 1.71521 17.867C1.22515 17.622 0.805099 17.2369 0.525065 16.7818C0.385047 16.5718 0.24503 16.3268 0.140017 16.0818C0.105013 15.9767 0.0700086 15.8367 0.0350043 15.6967C0.0350043 15.5917 0 15.4867 0 15.3467C0.105013 15.4517 0.175022 15.5217 0.24503 15.6267C0.350043 15.7317 0.420052 15.8367 0.49006 15.9067C0.665082 16.0818 0.805099 16.2568 0.980121 16.3968C1.33016 16.7118 1.68021 16.9919 2.10026 17.2019C2.48531 17.4119 2.94036 17.5869 3.36041 17.727C3.57044 17.797 3.81547 17.832 4.0605 17.902C4.16551 17.937 4.30553 17.937 4.41054 17.972C4.58556 18.007 4.69058 18.007 4.83059 18.042ZM12.7416 1.02991C12.9166 1.06491 13.0566 1.13492 13.2316 1.20493C13.4066 1.27494 13.5467 1.34495 13.6867 1.41496C14.0017 1.58998 14.2818 1.765 14.5618 1.97503C15.1219 2.39508 15.5769 2.95515 15.892 3.58522C16.207 4.2153 16.382 4.91539 16.382 5.58047C16.382 5.93051 16.347 6.24555 16.277 6.59559C16.242 6.77062 16.207 6.91063 16.137 7.08565C16.067 7.26068 16.032 7.40069 15.962 7.54071L15.927 7.05065C15.927 6.87563 15.927 6.73561 15.892 6.56059L15.7869 5.61547C15.6819 5.0204 15.4719 4.42533 15.1919 3.86526C14.9118 3.30519 14.5618 2.81513 14.1417 2.36007C13.9317 2.11504 13.6867 1.90502 13.4767 1.65999C13.3716 1.55497 13.2316 1.44996 13.0916 1.34495L12.7416 1.02991ZM15.7869 0.889893C15.927 0.924897 16.032 0.959901 16.137 1.02991C16.242 1.06491 16.382 1.13492 16.487 1.20493C16.6971 1.34495 16.9071 1.48497 17.1171 1.65999C17.5022 2.01003 17.8172 2.43008 17.9922 2.92014C18.2022 3.4102 18.2722 3.93527 18.2022 4.46033C18.1672 4.70536 18.0972 4.95039 18.0272 5.19542C17.9922 5.30043 17.9222 5.44045 17.8872 5.54546C17.8172 5.65048 17.7822 5.75549 17.6772 5.8605V5.51046V5.16042C17.6772 4.91539 17.6422 4.70536 17.6422 4.49534C17.5722 4.04028 17.5022 3.62023 17.3271 3.23518C17.1521 2.81513 16.9421 2.46509 16.6971 2.08004C16.557 1.90502 16.417 1.69499 16.277 1.51997C16.207 1.41496 16.137 1.34495 16.032 1.23994C15.962 1.06491 15.8569 0.959901 15.7869 0.889893Z" fill="#42ADE2"/>
<path d="M2.80057 6.10561C2.10049 6.42065 1.85546 7.26075 2.1705 7.96084L6.58104 17.167L9.03134 16.0118L4.6208 6.77069C4.30576 6.07061 3.50066 5.75557 2.80057 6.10561ZM14.387 13.4215L16.9773 12.1964L11.9367 1.69507C11.5867 0.994983 10.7466 0.679944 10.0115 1.02999C9.31137 1.38003 8.99634 2.22013 9.34638 2.95522L14.387 13.4215Z" fill="#FFE1BD"/>
<path d="M10.0462 0.995051C9.9762 1.03006 9.90619 1.06506 9.83618 1.13507C10.5013 0.960047 11.2013 1.27509 11.5164 1.90516L16.557 12.4065L17.0121 12.1964L11.9714 1.69514C11.6214 0.960047 10.7813 0.645008 10.0462 0.995051Z" fill="#E6B796"/>
<path d="M9.03082 15.9769L11.7262 14.6817L6.58052 3.97038C6.23048 3.23529 5.32036 2.88525 4.58527 3.23529C3.85018 3.58533 3.53515 4.49545 3.88519 5.23054L9.03082 15.9769Z" fill="#FFE1BD"/>
<path d="M4.58551 3.27044C4.51551 3.30544 4.4455 3.34045 4.37549 3.41045C5.04057 3.23543 5.81066 3.55047 6.1257 4.21555L9.3111 10.9014L10.0812 11.3564L6.58076 4.00553C6.23072 3.23543 5.35561 2.92039 4.58551 3.27044Z" fill="#E6B796"/>
<path d="M11.3062 13.8414L14.0015 12.5462L8.85591 1.83488C8.50587 1.09979 7.59576 0.749747 6.86066 1.13479C6.12557 1.48484 5.81054 2.39495 6.16058 3.13004L11.3062 13.8414Z" fill="#FFE1BD"/>
<path d="M6.86086 1.10003C6.79085 1.13503 6.72084 1.20504 6.65083 1.24004C7.31591 1.06502 8.08601 1.38006 8.40105 2.04514L12.0065 9.60607L12.7766 10.0611L8.8561 1.83512C8.50606 1.06502 7.59595 0.749984 6.86086 1.10003ZM2.80036 6.10564C2.73035 6.14065 2.66034 6.17565 2.59033 6.24566C3.22041 6.07064 3.88549 6.38568 4.16553 7.01575L6.79085 12.5114L7.56094 12.9665L4.62058 6.80573C4.30554 6.07064 3.50044 5.7556 2.80036 6.10564Z" fill="#E6B796"/>
<path d="M20.5823 5.05548C19.6372 4.32038 18.097 5.12548 17.3269 7.64579C16.8019 9.39601 16.7318 9.92107 15.6117 10.4461L14.9816 9.15098C14.9816 9.15098 5.04041 13.9466 5.42545 14.7167C5.42545 14.7167 6.6156 18.4271 8.64585 20.1423C11.6562 22.7326 18.6921 19.9673 19.0071 13.2815C19.1821 9.39601 21.5974 5.86057 20.5823 5.05548Z" fill="#FFE1BD"/>
<path d="M20.5827 5.05533C20.4076 4.91532 20.1976 4.84531 19.9876 4.8103C20.0226 4.84531 20.0926 4.84531 20.1276 4.88031C21.1777 5.68541 20.0926 7.54064 19.4975 9.22085C19.0075 10.551 18.5874 11.9162 18.6574 13.2463C18.9375 19.0571 13.0917 21.8224 9.59131 20.7723C13.0217 22.2074 19.3925 19.4771 19.1125 13.4214C19.0425 12.0912 19.4275 10.796 19.9526 9.39587C20.5127 7.71566 21.5978 5.86043 20.5827 5.05533Z" fill="#E6B796"/>
<path d="M15.927 10.3064C13.7567 10.5514 10.5713 13.6668 12.8116 17.0622C11.1664 13.6318 13.8617 11.3215 15.5769 10.5164C15.752 10.3764 15.927 10.3064 15.927 10.3064Z" fill="#E6B796"/>
</svg>
