<svg width="31" height="31" viewBox="0 0 31 31" fill="none" xmlns="http://www.w3.org/2000/svg">
<path d="M6.36117 8.42062C6.92752 8.52359 7.18495 9.08995 6.92752 9.60481L5.27995 13.5178C5.07401 14.0841 4.50766 14.2386 4.04428 13.9812L0.543208 11.8187C0.0798306 11.5098 -0.126115 10.8405 0.0798306 10.2741L0.903613 8.31765C1.10956 7.80279 1.77888 7.44238 2.29374 7.54535L6.36117 8.42062ZM4.04428 16.9159C4.50766 16.607 5.07401 16.8129 5.33144 17.3793L6.97901 21.2922C7.18495 21.8586 6.92752 22.3734 6.41265 22.4764L2.39672 23.3517C1.83037 23.4546 1.21253 23.1457 1.00659 22.5794L0.182803 20.6229C-0.0231422 20.0565 0.182803 19.3872 0.646181 19.0783L4.04428 16.9159ZM8.42062 24.5873C8.5236 24.021 9.08995 23.7636 9.60481 24.021L13.5178 25.6686C14.0841 25.8745 14.2386 26.4409 13.9812 26.9557L11.7672 30.4053C11.4583 30.8687 10.789 31.0746 10.2226 30.8687L8.26616 30.0449C7.7513 29.839 7.3909 29.1696 7.49387 28.6548L8.42062 24.5873ZM16.9159 26.9042C16.607 26.4409 16.8129 25.8745 17.3793 25.6171L21.2922 23.9695C21.8586 23.7636 22.3734 24.021 22.4764 24.5359L23.3517 28.5518C23.4546 29.1181 23.1457 29.736 22.5794 29.9419L20.6229 30.7657C20.0565 30.9717 19.3872 30.7657 19.0783 30.3023L16.9159 26.9042ZM24.5873 22.5279C24.021 22.4249 23.7636 21.8586 24.021 21.3437L25.6686 17.4307C25.8745 16.9159 26.4409 16.7099 26.9557 16.9674L30.4568 19.1813C30.9202 19.4902 31.1261 20.1595 30.9202 20.7259L30.0964 22.6824C29.8904 23.1972 29.2211 23.5576 28.7063 23.4546L24.5873 22.5279ZM26.9042 14.0326C26.4409 14.3416 25.8745 14.1356 25.6171 13.5693L23.9695 9.6563C23.7636 9.08995 24.021 8.57508 24.5359 8.47211L28.5518 7.59684C29.1182 7.49387 29.736 7.80279 29.9419 8.36914L30.7657 10.3256C30.9717 10.8405 30.7657 11.5613 30.3023 11.8702L26.9042 14.0326ZM22.5279 6.36117C22.4249 6.92752 21.8586 7.18495 21.3437 6.92752L17.4307 5.27995C16.8644 5.07401 16.7099 4.50766 16.9674 3.99279L19.1298 0.543208C19.4387 0.0798306 20.108 -0.126115 20.6744 0.0798306L22.6309 0.903613C23.1457 1.10956 23.5061 1.77888 23.4032 2.29374L22.5279 6.36117ZM14.0326 4.04428C14.3416 4.50766 14.1356 5.07401 13.5693 5.33144L9.6563 6.979C9.14143 7.18495 8.57508 6.92752 8.47211 6.41265L7.59684 2.39672C7.49387 1.83037 7.80279 1.21253 8.36914 1.00659L10.3256 0.182803C10.892 -0.0231422 11.5613 0.182803 11.8702 0.646181L14.0326 4.04428Z" fill="white"/>
<path d="M15.4743 2.44849C8.2662 2.44849 2.44824 8.26645 2.44824 15.4745C2.44824 22.6826 8.2662 28.5006 15.4743 28.5006C22.6824 28.5006 28.5003 22.6826 28.5003 15.4745C28.5003 8.26645 22.6824 2.44849 15.4743 2.44849ZM15.4743 23.6609C10.9435 23.6609 7.28796 20.0053 7.28796 15.4745C7.28796 10.9437 10.9435 7.28821 15.4743 7.28821C20.0051 7.28821 23.6606 10.9437 23.6606 15.4745C23.6606 20.0053 20.0051 23.6609 15.4743 23.6609Z" fill="white"/>
<path d="M15.4741 5.3313C9.8621 5.3313 5.3313 9.8621 5.3313 15.4741C5.3313 21.0861 9.8621 25.6169 15.4741 25.6169C21.0861 25.6169 25.6169 21.0861 25.6169 15.4741C25.6169 9.8621 21.0861 5.3313 15.4741 5.3313ZM15.4741 19.3356C13.3632 19.3356 11.6126 17.5851 11.6126 15.4741C11.6126 13.3632 13.3632 11.6126 15.4741 11.6126C17.5851 11.6126 19.3356 13.3632 19.3356 15.4741C19.3356 17.5851 17.5851 19.3356 15.4741 19.3356Z" fill="black"/>
<path d="M15.4742 7.75122C11.2008 7.75122 7.75122 11.2008 7.75122 15.4742C7.75122 19.7475 11.2008 23.1971 15.4742 23.1971C19.7475 23.1971 23.1971 19.7475 23.1971 15.4742C23.1971 11.2008 19.7475 7.75122 15.4742 7.75122ZM15.4742 19.3357C13.3632 19.3357 11.6127 17.5851 11.6127 15.4742C11.6127 13.3632 13.3632 11.6127 15.4742 11.6127C17.5851 11.6127 19.3357 13.3632 19.3357 15.4742C19.3357 17.5851 17.5851 19.3357 15.4742 19.3357Z" fill="white"/>
</svg>
