<svg width="19" height="19" viewBox="0 0 19 19" fill="none" xmlns="http://www.w3.org/2000/svg">
<path d="M13.6402 0.25C13.2216 0.273257 12.8029 0.319771 12.4076 0.459312C11.7796 0.691882 11.175 1.04074 10.6633 1.55239C10.5161 1.64571 10.3917 1.77094 10.2994 1.9188C10.2072 2.06666 10.1493 2.23338 10.1301 2.40663C10.1109 2.57988 10.131 2.75522 10.1887 2.91968C10.2464 3.08415 10.3404 3.23353 10.4636 3.35678C10.5869 3.48003 10.7363 3.574 10.9007 3.63173C11.0652 3.68947 11.2405 3.70949 11.4138 3.69032C11.587 3.67115 11.7538 3.61328 11.9016 3.52098C12.0495 3.42869 12.1747 3.30433 12.268 3.15712C12.5239 2.90129 12.8262 2.76175 13.1518 2.64546C13.9658 2.36638 14.9658 2.48267 15.617 3.15712C16.5241 4.06414 16.5241 5.57584 15.617 6.50612L12.1285 9.99466C11.1052 11.018 10.2679 11.111 9.66326 11.0877C9.05858 11.0645 8.70972 10.7854 8.70972 10.7854C8.57534 10.709 8.42724 10.6599 8.27386 10.6408C8.12049 10.6217 7.96486 10.633 7.81584 10.674C7.66683 10.715 7.52736 10.785 7.40539 10.8799C7.28342 10.9749 7.18135 11.0929 7.105 11.2273C7.02864 11.3617 6.9795 11.5098 6.96039 11.6631C6.94127 11.8165 6.95255 11.9721 6.99359 12.1212C7.03462 12.2702 7.1046 12.4096 7.19953 12.5316C7.29447 12.6536 7.41249 12.7557 7.54688 12.832C7.54688 12.832 8.33761 13.3437 9.50046 13.4134C10.6633 13.4832 12.2913 13.0413 13.71 11.5994L17.1985 8.11085C19.0125 6.2968 19.0125 3.36643 17.1985 1.57565C16.5473 0.924451 15.7798 0.529083 14.9426 0.343028C14.524 0.25 14.0588 0.25 13.6402 0.273257V0.25ZM8.98881 5.62235C7.82596 5.57584 6.22123 5.97121 4.84907 7.36662L1.36053 10.8552C-0.45351 12.6692 -0.45351 15.5996 1.36053 17.3904C2.66292 18.6928 4.52348 19.0649 6.15146 18.4834C6.7794 18.2509 7.38408 17.902 7.89573 17.3904C8.04295 17.297 8.1673 17.1718 8.25959 17.024C8.35189 16.8761 8.40976 16.7094 8.42893 16.5361C8.4481 16.3629 8.42808 16.1875 8.37035 16.0231C8.31261 15.8586 8.21865 15.7092 8.0954 15.586C7.97214 15.4627 7.82276 15.3688 7.6583 15.311C7.49383 15.2533 7.31849 15.2333 7.14524 15.2524C6.972 15.2716 6.80528 15.3295 6.65741 15.4218C6.50955 15.5141 6.38433 15.6384 6.291 15.7856C6.03518 16.0415 5.73284 16.181 5.40724 16.2973C4.59325 16.5764 3.5932 16.4601 2.942 15.7856C2.03498 14.8786 2.03498 13.3669 2.942 12.4366L6.43054 8.9481C7.36082 8.01782 8.17481 7.90153 8.82601 7.92479C9.4772 7.94805 9.91909 8.1341 9.91909 8.1341C10.0553 8.2363 10.2124 8.30731 10.3791 8.34212C10.5459 8.37694 10.7182 8.3747 10.884 8.33556C11.0497 8.29643 11.2049 8.22136 11.3384 8.11566C11.472 8.00996 11.5807 7.87621 11.6569 7.72387C11.733 7.57152 11.7748 7.40431 11.7792 7.23404C11.7837 7.06377 11.7506 6.89461 11.6825 6.73852C11.6143 6.58242 11.5127 6.4432 11.3848 6.33071C11.2569 6.21821 11.1059 6.13518 10.9424 6.08749C10.9424 6.08749 10.1517 5.62235 8.98881 5.57584V5.62235Z" fill="white"/>
</svg>
