<svg width="20" height="20" viewBox="0 0 20 20" fill="none" xmlns="http://www.w3.org/2000/svg">
<path d="M18.5186 0.380615H1.47639C0.661389 0.380615 0 1.00709 0 1.77854V18.3814C0 19.1539 0.661389 19.7812 1.47639 19.7812H18.5186C19.3342 19.7812 20 19.1539 20 18.3814V1.77854C20 1.00709 19.3342 0.380615 18.5186 0.380615ZM5.93167 16.9126H2.96389V7.6545H5.93167V16.9126ZM4.44778 6.38861C3.49694 6.38861 2.72833 5.64115 2.72833 4.71962C2.72833 3.79944 3.49694 3.05197 4.44778 3.05197C5.39639 3.05197 6.16694 3.79944 6.16694 4.71962C6.16694 5.64115 5.39639 6.38861 4.44778 6.38861ZM17.0417 16.9126H14.0786V12.4106C14.0786 11.3366 14.0569 9.95563 12.5367 9.95563C10.9928 9.95563 10.7575 11.1253 10.7575 12.3327V16.9129H7.79222V7.6545H10.6381V8.91877H10.6786C11.0747 8.19125 12.0425 7.42358 13.4858 7.42358C16.4875 7.42358 17.0419 9.34047 17.0419 11.8343L17.0417 16.9126Z" fill="white"/>
</svg>
