<svg width="175" height="22" viewBox="0 0 175 22" fill="none" xmlns="http://www.w3.org/2000/svg">
<path d="M17.459 1.195V16H13.343V7.831L10.55 16H7.106L4.292 7.768V16H0.176V1.195H5.153L8.87 10.813L12.503 1.195H17.459ZM19.13 10.099C19.13 8.881 19.347 7.817 19.781 6.907C20.229 5.997 20.831 5.297 21.587 4.807C22.357 4.317 23.211 4.072 24.149 4.072C24.961 4.072 25.661 4.233 26.249 4.555C26.837 4.877 27.292 5.311 27.614 5.857V4.219H31.73V16H27.614V14.362C27.292 14.908 26.83 15.342 26.228 15.664C25.64 15.986 24.947 16.147 24.149 16.147C23.211 16.147 22.357 15.902 21.587 15.412C20.831 14.922 20.229 14.222 19.781 13.312C19.347 12.388 19.13 11.317 19.13 10.099ZM27.614 10.099C27.614 9.343 27.404 8.748 26.984 8.314C26.578 7.88 26.074 7.663 25.472 7.663C24.856 7.663 24.345 7.88 23.939 8.314C23.533 8.734 23.33 9.329 23.33 10.099C23.33 10.855 23.533 11.457 23.939 11.905C24.345 12.339 24.856 12.556 25.472 12.556C26.074 12.556 26.578 12.339 26.984 11.905C27.404 11.471 27.614 10.869 27.614 10.099ZM41.0264 12.493V16H39.2414C36.2314 16 34.7264 14.509 34.7264 11.527V7.642H33.2774V4.219H34.7264V1.363H38.8634V4.219H41.0054V7.642H38.8634V11.59C38.8634 11.912 38.9334 12.143 39.0734 12.283C39.2274 12.423 39.4794 12.493 39.8294 12.493H41.0264ZM54.1703 9.973C54.1703 10.295 54.1493 10.617 54.1073 10.939H46.3163C46.3583 11.583 46.5333 12.066 46.8413 12.388C47.1633 12.696 47.5693 12.85 48.0593 12.85C48.7453 12.85 49.2353 12.542 49.5293 11.926H53.9183C53.7363 12.738 53.3793 13.466 52.8473 14.11C52.3293 14.74 51.6713 15.237 50.8733 15.601C50.0753 15.965 49.1933 16.147 48.2273 16.147C47.0653 16.147 46.0293 15.902 45.1193 15.412C44.2233 14.922 43.5163 14.222 42.9983 13.312C42.4943 12.402 42.2423 11.331 42.2423 10.099C42.2423 8.867 42.4943 7.803 42.9983 6.907C43.5023 5.997 44.2023 5.297 45.0983 4.807C46.0083 4.317 47.0513 4.072 48.2273 4.072C49.3893 4.072 50.4183 4.31 51.3143 4.786C52.2103 5.262 52.9103 5.948 53.4143 6.844C53.9183 7.726 54.1703 8.769 54.1703 9.973ZM49.9703 8.944C49.9703 8.44 49.8023 8.048 49.4663 7.768C49.1303 7.474 48.7103 7.327 48.2063 7.327C47.7023 7.327 47.2893 7.467 46.9673 7.747C46.6453 8.013 46.4353 8.412 46.3373 8.944H49.9703ZM67.9087 4.219V16H63.7717V14.32C63.4217 14.852 62.9387 15.286 62.3227 15.622C61.7067 15.944 60.9997 16.105 60.2017 16.105C58.8297 16.105 57.7447 15.657 56.9467 14.761C56.1627 13.851 55.7707 12.619 55.7707 11.065V4.219H59.8657V10.54C59.8657 11.212 60.0407 11.744 60.3907 12.136C60.7547 12.514 61.2307 12.703 61.8187 12.703C62.4207 12.703 62.8967 12.514 63.2467 12.136C63.5967 11.744 63.7717 11.212 63.7717 10.54V4.219H67.9087ZM75.2702 16.147C74.2062 16.147 73.2542 15.972 72.4142 15.622C71.5882 15.258 70.9302 14.768 70.4402 14.152C69.9642 13.522 69.6982 12.815 69.6422 12.031H73.6322C73.6882 12.409 73.8632 12.703 74.1572 12.913C74.4512 13.123 74.8152 13.228 75.2492 13.228C75.5852 13.228 75.8512 13.158 76.0472 13.018C76.2432 12.878 76.3412 12.696 76.3412 12.472C76.3412 12.178 76.1802 11.961 75.8582 11.821C75.5362 11.681 75.0042 11.527 74.2622 11.359C73.4222 11.191 72.7222 11.002 72.1622 10.792C71.6022 10.582 71.1122 10.239 70.6922 9.763C70.2862 9.287 70.0832 8.643 70.0832 7.831C70.0832 7.131 70.2722 6.501 70.6502 5.941C71.0282 5.367 71.5812 4.912 72.3092 4.576C73.0512 4.24 73.9402 4.072 74.9762 4.072C76.5162 4.072 77.7272 4.45 78.6092 5.206C79.4912 5.962 80.0022 6.956 80.1422 8.188H76.4252C76.3552 7.81 76.1872 7.523 75.9212 7.327C75.6692 7.117 75.3262 7.012 74.8922 7.012C74.5562 7.012 74.2972 7.075 74.1152 7.201C73.9472 7.327 73.8632 7.502 73.8632 7.726C73.8632 8.006 74.0242 8.223 74.3462 8.377C74.6682 8.517 75.1862 8.664 75.9002 8.818C76.7542 9 77.4612 9.203 78.0212 9.427C78.5952 9.651 79.0922 10.015 79.5122 10.519C79.9462 11.009 80.1632 11.681 80.1632 12.535C80.1632 13.221 79.9602 13.837 79.5542 14.383C79.1622 14.929 78.5952 15.363 77.8532 15.685C77.1252 15.993 76.2642 16.147 75.2702 16.147ZM86.0927 12.577H91.1117V16H81.5567V12.745L86.2397 7.642H81.5987V4.219H90.9437V7.474L86.0927 12.577ZM105.607 16L100.966 9.511V16H96.8498V1.195H100.966V7.579L105.565 1.195H110.311L104.872 8.377L110.584 16H105.607ZM122.377 18.394C122.867 18.394 123.434 18.289 124.078 18.079V20.284C123.378 20.508 122.643 20.62 121.873 20.62C120.879 20.62 120.088 20.403 119.5 19.969C118.912 19.535 118.618 18.933 118.618 18.163C118.618 17.729 118.716 17.323 118.912 16.945C119.108 16.581 119.437 16.224 119.899 15.874V14.362C119.577 14.908 119.115 15.342 118.513 15.664C117.925 15.986 117.232 16.147 116.434 16.147C115.496 16.147 114.642 15.902 113.872 15.412C113.116 14.922 112.514 14.222 112.066 13.312C111.632 12.388 111.415 11.317 111.415 10.099C111.415 8.881 111.632 7.817 112.066 6.907C112.514 5.997 113.116 5.297 113.872 4.807C114.642 4.317 115.496 4.072 116.434 4.072C117.246 4.072 117.946 4.233 118.534 4.555C119.122 4.877 119.577 5.311 119.899 5.857V4.219H124.015V16H123.994L123.07 16.462C122.524 16.742 122.132 16.98 121.894 17.176C121.67 17.386 121.558 17.603 121.558 17.827C121.558 17.995 121.628 18.128 121.768 18.226C121.922 18.338 122.125 18.394 122.377 18.394ZM117.757 12.556C118.359 12.556 118.863 12.339 119.269 11.905C119.689 11.471 119.899 10.869 119.899 10.099C119.899 9.343 119.689 8.748 119.269 8.314C118.863 7.88 118.359 7.663 117.757 7.663C117.141 7.663 116.63 7.88 116.224 8.314C115.818 8.734 115.615 9.329 115.615 10.099C115.615 10.855 115.818 11.457 116.224 11.905C116.63 12.339 117.141 12.556 117.757 12.556ZM130.477 5.857C130.799 5.311 131.254 4.877 131.842 4.555C132.43 4.233 133.123 4.072 133.921 4.072C134.859 4.072 135.706 4.317 136.462 4.807C137.232 5.297 137.834 5.997 138.268 6.907C138.716 7.817 138.94 8.881 138.94 10.099C138.94 11.317 138.716 12.388 138.268 13.312C137.834 14.222 137.232 14.922 136.462 15.412C135.706 15.902 134.859 16.147 133.921 16.147C133.123 16.147 132.43 15.986 131.842 15.664C131.268 15.342 130.813 14.908 130.477 14.362V21.628H126.361V4.219H130.477V5.857ZM134.761 10.099C134.761 9.329 134.551 8.734 134.131 8.314C133.725 7.88 133.221 7.663 132.619 7.663C132.017 7.663 131.506 7.88 131.086 8.314C130.68 8.748 130.477 9.343 130.477 10.099C130.477 10.869 130.68 11.471 131.086 11.905C131.506 12.339 132.017 12.556 132.619 12.556C133.221 12.556 133.725 12.339 134.131 11.905C134.551 11.457 134.761 10.855 134.761 10.099ZM139.962 10.099C139.962 8.881 140.179 7.817 140.613 6.907C141.061 5.997 141.663 5.297 142.419 4.807C143.189 4.317 144.043 4.072 144.981 4.072C145.793 4.072 146.493 4.233 147.081 4.555C147.669 4.877 148.124 5.311 148.446 5.857V4.219H152.562V16H148.446V14.362C148.124 14.908 147.662 15.342 147.06 15.664C146.472 15.986 145.779 16.147 144.981 16.147C144.043 16.147 143.189 15.902 142.419 15.412C141.663 14.922 141.061 14.222 140.613 13.312C140.179 12.388 139.962 11.317 139.962 10.099ZM148.446 10.099C148.446 9.343 148.236 8.748 147.816 8.314C147.41 7.88 146.906 7.663 146.304 7.663C145.688 7.663 145.177 7.88 144.771 8.314C144.365 8.734 144.162 9.329 144.162 10.099C144.162 10.855 144.365 11.457 144.771 11.905C145.177 12.339 145.688 12.556 146.304 12.556C146.906 12.556 147.41 12.339 147.816 11.905C148.236 11.471 148.446 10.869 148.446 10.099ZM160.808 8.797L159.443 9.196V16H155.306V10.372L153.941 10.771V7.201L155.306 6.802V0.46H159.443V5.626L160.808 5.227V8.797ZM161.516 10.099C161.516 8.881 161.733 7.817 162.167 6.907C162.615 5.997 163.217 5.297 163.973 4.807C164.743 4.317 165.597 4.072 166.535 4.072C167.347 4.072 168.047 4.233 168.635 4.555C169.223 4.877 169.678 5.311 170 5.857V4.219H174.116V16H170V14.362C169.678 14.908 169.216 15.342 168.614 15.664C168.026 15.986 167.333 16.147 166.535 16.147C165.597 16.147 164.743 15.902 163.973 15.412C163.217 14.922 162.615 14.222 162.167 13.312C161.733 12.388 161.516 11.317 161.516 10.099ZM170 10.099C170 9.343 169.79 8.748 169.37 8.314C168.964 7.88 168.46 7.663 167.858 7.663C167.242 7.663 166.731 7.88 166.325 8.314C165.919 8.734 165.716 9.329 165.716 10.099C165.716 10.855 165.919 11.457 166.325 11.905C166.731 12.339 167.242 12.556 167.858 12.556C168.46 12.556 168.964 12.339 169.37 11.905C169.79 11.471 170 10.869 170 10.099Z" fill="white"/>
</svg>
