<svg width="133" height="22" viewBox="0 0 133 22" fill="none" xmlns="http://www.w3.org/2000/svg">
<path d="M17.459 1.195V16H13.343V7.831L10.55 16H7.106L4.292 7.768V16H0.176V1.195H5.153L8.87 10.813L12.503 1.195H17.459ZM19.13 10.099C19.13 8.881 19.347 7.817 19.781 6.907C20.229 5.997 20.831 5.297 21.587 4.807C22.357 4.317 23.211 4.072 24.149 4.072C24.961 4.072 25.661 4.233 26.249 4.555C26.837 4.877 27.292 5.311 27.614 5.857V4.219H31.73V16H27.614V14.362C27.292 14.908 26.83 15.342 26.228 15.664C25.64 15.986 24.947 16.147 24.149 16.147C23.211 16.147 22.357 15.902 21.587 15.412C20.831 14.922 20.229 14.222 19.781 13.312C19.347 12.388 19.13 11.317 19.13 10.099ZM27.614 10.099C27.614 9.343 27.404 8.748 26.984 8.314C26.578 7.88 26.074 7.663 25.472 7.663C24.856 7.663 24.345 7.88 23.939 8.314C23.533 8.734 23.33 9.329 23.33 10.099C23.33 10.855 23.533 11.457 23.939 11.905C24.345 12.339 24.856 12.556 25.472 12.556C26.074 12.556 26.578 12.339 26.984 11.905C27.404 11.471 27.614 10.869 27.614 10.099ZM41.0264 12.493V16H39.2414C36.2314 16 34.7264 14.509 34.7264 11.527V7.642H33.2774V4.219H34.7264V1.363H38.8634V4.219H41.0054V7.642H38.8634V11.59C38.8634 11.912 38.9334 12.143 39.0734 12.283C39.2274 12.423 39.4794 12.493 39.8294 12.493H41.0264ZM49.8653 12.493V16H48.0803C45.0703 16 43.5653 14.509 43.5653 11.527V7.642H42.1163V4.219H43.5653V1.363H47.7023V4.219H49.8443V7.642H47.7023V11.59C47.7023 11.912 47.7723 12.143 47.9123 12.283C48.0663 12.423 48.3183 12.493 48.6683 12.493H49.8653ZM64.5297 16L59.8887 9.511V16H55.7727V1.195H59.8887V7.579L64.4877 1.195H69.2337L63.7947 8.377L69.5067 16H64.5297ZM70.338 10.099C70.338 8.881 70.555 7.817 70.989 6.907C71.437 5.997 72.039 5.297 72.795 4.807C73.565 4.317 74.419 4.072 75.357 4.072C76.169 4.072 76.869 4.233 77.457 4.555C78.045 4.877 78.5 5.311 78.822 5.857V4.219H82.938V16H78.822V14.362C78.5 14.908 78.038 15.342 77.436 15.664C76.848 15.986 76.155 16.147 75.357 16.147C74.419 16.147 73.565 15.902 72.795 15.412C72.039 14.922 71.437 14.222 70.989 13.312C70.555 12.388 70.338 11.317 70.338 10.099ZM78.822 10.099C78.822 9.343 78.612 8.748 78.192 8.314C77.786 7.88 77.282 7.663 76.68 7.663C76.064 7.663 75.553 7.88 75.147 8.314C74.741 8.734 74.538 9.329 74.538 10.099C74.538 10.855 74.741 11.457 75.147 11.905C75.553 12.339 76.064 12.556 76.68 12.556C77.282 12.556 77.786 12.339 78.192 11.905C78.612 11.471 78.822 10.869 78.822 10.099ZM89.3994 5.857C89.7214 5.311 90.1764 4.877 90.7644 4.555C91.3524 4.233 92.0454 4.072 92.8434 4.072C93.7814 4.072 94.6284 4.317 95.3844 4.807C96.1544 5.297 96.7564 5.997 97.1904 6.907C97.6384 7.817 97.8624 8.881 97.8624 10.099C97.8624 11.317 97.6384 12.388 97.1904 13.312C96.7564 14.222 96.1544 14.922 95.3844 15.412C94.6284 15.902 93.7814 16.147 92.8434 16.147C92.0454 16.147 91.3524 15.986 90.7644 15.664C90.1904 15.342 89.7354 14.908 89.3994 14.362V21.628H85.2834V4.219H89.3994V5.857ZM93.6834 10.099C93.6834 9.329 93.4734 8.734 93.0534 8.314C92.6474 7.88 92.1434 7.663 91.5414 7.663C90.9394 7.663 90.4284 7.88 90.0084 8.314C89.6024 8.748 89.3994 9.343 89.3994 10.099C89.3994 10.869 89.6024 11.471 90.0084 11.905C90.4284 12.339 90.9394 12.556 91.5414 12.556C92.1434 12.556 92.6474 12.339 93.0534 11.905C93.4734 11.457 93.6834 10.855 93.6834 10.099ZM98.8849 10.099C98.8849 8.881 99.1019 7.817 99.5359 6.907C99.9839 5.997 100.586 5.297 101.342 4.807C102.112 4.317 102.966 4.072 103.904 4.072C104.716 4.072 105.416 4.233 106.004 4.555C106.592 4.877 107.047 5.311 107.369 5.857V4.219H111.485V16H107.369V14.362C107.047 14.908 106.585 15.342 105.983 15.664C105.395 15.986 104.702 16.147 103.904 16.147C102.966 16.147 102.112 15.902 101.342 15.412C100.586 14.922 99.9839 14.222 99.5359 13.312C99.1019 12.388 98.8849 11.317 98.8849 10.099ZM107.369 10.099C107.369 9.343 107.159 8.748 106.739 8.314C106.333 7.88 105.829 7.663 105.227 7.663C104.611 7.663 104.1 7.88 103.694 8.314C103.288 8.734 103.085 9.329 103.085 10.099C103.085 10.855 103.288 11.457 103.694 11.905C104.1 12.339 104.611 12.556 105.227 12.556C105.829 12.556 106.333 12.339 106.739 11.905C107.159 11.471 107.369 10.869 107.369 10.099ZM117.946 0.46V16H113.83V0.46H117.946ZM119.618 10.099C119.618 8.881 119.835 7.817 120.269 6.907C120.717 5.997 121.319 5.297 122.075 4.807C122.845 4.317 123.699 4.072 124.637 4.072C125.449 4.072 126.149 4.233 126.737 4.555C127.325 4.877 127.78 5.311 128.102 5.857V4.219H132.218V16H128.102V14.362C127.78 14.908 127.318 15.342 126.716 15.664C126.128 15.986 125.435 16.147 124.637 16.147C123.699 16.147 122.845 15.902 122.075 15.412C121.319 14.922 120.717 14.222 120.269 13.312C119.835 12.388 119.618 11.317 119.618 10.099ZM128.102 10.099C128.102 9.343 127.892 8.748 127.472 8.314C127.066 7.88 126.562 7.663 125.96 7.663C125.344 7.663 124.833 7.88 124.427 8.314C124.021 8.734 123.818 9.329 123.818 10.099C123.818 10.855 124.021 11.457 124.427 11.905C124.833 12.339 125.344 12.556 125.96 12.556C126.562 12.556 127.066 12.339 127.472 11.905C127.892 11.471 128.102 10.869 128.102 10.099Z" fill="white"/>
</svg>
