<svg width="144" height="157" viewBox="0 0 144 157" fill="none" xmlns="http://www.w3.org/2000/svg">
<path d="M128.564 52.1404L44.5944 3.98392C40.0507 1.36017 34.8935 -0.0142991 29.6467 0.000112169C24.3999 0.0145234 19.2503 1.4173 14.7211 4.06597C10.1919 6.71464 6.44434 10.5148 3.85912 15.0806C1.27389 19.6463 -0.0569182 24.8149 0.00186638 30.0614V126.722C0.00186638 134.606 3.13395 142.168 8.70909 147.743C14.2842 153.318 21.8458 156.45 29.7302 156.45C34.9495 156.441 40.075 155.063 44.5944 152.452L128.564 104.295C133.076 101.684 136.822 97.9322 139.426 93.4161C142.03 88.9001 143.401 83.7786 143.401 78.5655C143.401 73.3525 142.03 68.231 139.426 63.715C136.822 59.1989 133.076 55.4471 128.564 52.8358V52.1404ZM119.871 88.5619L35.9019 137.414C34.0198 138.48 31.8935 139.041 29.7302 139.041C27.5669 139.041 25.4406 138.48 23.5585 137.414C21.6818 136.33 20.1234 134.772 19.04 132.895C17.9567 131.018 17.3865 128.889 17.3869 126.722V29.7137C17.3865 27.5466 17.9567 25.4177 19.04 23.5408C20.1234 21.664 21.6818 20.1055 23.5585 19.0219C25.4483 17.9715 27.5684 17.4042 29.7302 17.3704C31.8906 17.4147 34.0081 17.9814 35.9019 19.0219L119.871 67.5261C121.749 68.6091 123.308 70.1675 124.392 72.0443C125.476 73.9212 126.047 76.0504 126.047 78.2178C126.047 80.3853 125.476 82.5145 124.392 84.3914C123.308 86.2682 121.749 87.8265 119.871 88.9096V88.5619Z" fill="white"/>
</svg>
