<svg width="18" height="18" viewBox="0 0 18 18" fill="none" xmlns="http://www.w3.org/2000/svg">
<path d="M17.7572 15.4351L14.2821 11.9599C14.1252 11.803 13.9126 11.7159 13.6895 11.7159H13.1213C14.0834 10.4855 14.655 8.93783 14.655 7.25427C14.655 3.24928 11.4099 0.00415039 7.4049 0.00415039C3.39991 0.00415039 0.154785 3.24928 0.154785 7.25427C0.154785 11.2593 3.39991 14.5044 7.4049 14.5044C9.08847 14.5044 10.6361 13.9327 11.8665 12.9707V13.5389C11.8665 13.7619 11.9537 13.9746 12.1105 14.1314L15.5857 17.6066C15.9133 17.9343 16.4432 17.9343 16.7673 17.6066L17.7538 16.6202C18.0814 16.2925 18.0814 15.7627 17.7572 15.4351ZM7.4049 11.7159C4.94056 11.7159 2.94329 9.7221 2.94329 7.25427C2.94329 4.78993 4.93708 2.79266 7.4049 2.79266C9.86925 2.79266 11.8665 4.78644 11.8665 7.25427C11.8665 9.71861 9.87273 11.7159 7.4049 11.7159Z" fill="white"/>
</svg>
