<svg width="174" height="31" viewBox="0 0 174 31" fill="none" xmlns="http://www.w3.org/2000/svg">
<path fill-rule="evenodd" clip-rule="evenodd" d="M14.8417 20.3093L20.1939 19.3656C22.0404 18.9741 22.5183 20.693 21.9535 21.4846L15.7832 30.1344C15.4782 30.5685 14.8742 30.6757 14.4395 30.3713L1.41046 21.2483C0.975752 20.944 0.869171 20.3393 1.17351 19.9045L10.2966 6.87555C10.6009 6.44084 11.2056 6.33426 11.6403 6.6386L21.3152 13.4122L19.8477 15.5081L12.2699 10.2093C11.835 9.9052 11.2305 10.0115 10.9261 10.4462L4.74418 19.2751C4.43984 19.7098 4.54642 20.3144 4.98113 20.6188L13.81 26.8009C14.2447 27.1053 14.8494 26.9987 15.1538 26.564L18.1144 22.3358L15.287 22.8344L14.0804 23.0471C13.5578 23.1392 13.0549 22.787 12.9627 22.2645L12.8527 21.64C12.7606 21.1174 13.1128 20.6144 13.6354 20.5223L14.8417 20.3093ZM20.8514 16.2108C21.2861 16.5151 21.8906 16.4086 22.1951 15.9738L22.5589 15.4544C22.8632 15.0198 22.7579 14.4132 22.3219 14.1108L21.3152 13.4122L19.8477 15.5081L20.8514 16.2108ZM10.6079 16.1628C10.6079 16.4905 10.8761 16.7587 11.2038 16.7587H12.815V18.3701C12.815 18.6978 13.0832 18.9659 13.4109 18.9659H13.9535C14.2812 18.9659 14.5493 18.6978 14.5493 18.3701V16.7587H16.1608C16.4886 16.7587 16.7567 16.4905 16.7567 16.1628V15.6204C16.7567 15.2927 16.4886 15.0245 16.1608 15.0245H14.5492V13.4132C14.5492 13.0854 14.281 12.8173 13.9533 12.8173H13.4108C13.0831 12.8173 12.8149 13.0854 12.8149 13.4132V15.0244H11.2038C10.8761 15.0244 10.6079 15.2926 10.6079 15.6203V16.1628Z" fill="white" stroke="white" stroke-width="0.0779622" stroke-miterlimit="22.9256"/>
<path fill-rule="evenodd" clip-rule="evenodd" d="M29.2368 9.57311C29.4735 9.09935 30.0494 8.90709 30.5232 9.14377C30.997 9.38044 31.1892 9.95639 30.9526 10.4302C30.7159 10.9039 30.1399 11.0962 29.6662 10.8595C29.1923 10.6228 29.0001 10.0469 29.2368 9.57311Z" fill="#FFED00"/>
<path fill-rule="evenodd" clip-rule="evenodd" d="M32.5981 11.2523C32.8348 10.7785 33.4107 10.5862 33.8845 10.8229C34.3583 11.0596 34.5505 11.6355 34.3139 12.1093C34.0772 12.5831 33.5012 12.7753 33.0275 12.5386C32.5537 12.302 32.3614 11.726 32.5981 11.2523Z" fill="#00963F"/>
<path fill-rule="evenodd" clip-rule="evenodd" d="M30.507 13.3799C30.0332 13.1432 29.8409 12.5673 30.0776 12.0935C30.3143 11.6197 30.8902 11.4275 31.364 11.6642C31.8378 11.9008 32.03 12.4768 31.7933 12.9505C31.5567 13.4243 30.9807 13.6166 30.507 13.3799Z" fill="#009EE3"/>
<path fill-rule="evenodd" clip-rule="evenodd" d="M32.1864 10.0183C31.7126 9.78159 31.5204 9.20564 31.757 8.73187C31.9937 8.2581 32.5697 8.06584 33.0434 8.30252C33.5172 8.5392 33.7095 9.11515 33.4728 9.58891C33.2361 10.0628 32.6602 10.2549 32.1864 10.0183Z" fill="#E3000F"/>
<path fill-rule="evenodd" clip-rule="evenodd" d="M24.0735 13.5557L24.7763 12.5521L22.6804 11.0846L21.9734 12.0853C21.6671 12.5187 21.7758 13.1247 22.2103 13.4289L22.7298 13.7927C23.1643 14.097 23.769 13.9904 24.0735 13.5557ZM31.1224 15.3517L32.3291 15.1389C32.8515 15.0468 33.3546 15.399 33.4467 15.9216L33.5569 16.546C33.649 17.0686 33.2968 17.5716 32.7742 17.6637L31.5676 17.8765L28.7402 18.375L32.9684 21.3356C33.4031 21.6399 34.0078 21.5333 34.3121 21.0986L40.4943 12.2697C40.7986 11.835 40.692 11.2305 40.2573 10.926L31.4284 4.74404C30.9937 4.43956 30.3894 4.54642 30.0847 4.98099L24.7763 12.5521L22.6804 11.0846L29.4552 1.41046C29.7596 0.975752 30.3643 0.869171 30.799 1.17351L43.828 10.2966C44.2627 10.6009 44.3693 11.2056 44.0649 11.6403L34.9419 24.6693C34.6375 25.104 34.0334 25.2099 33.5981 24.9063L24.8416 18.8885C24.0402 18.3377 23.9013 16.5591 25.7704 16.2955L31.1224 15.3517Z" fill="white" stroke="white" stroke-width="0.0779622" stroke-miterlimit="22.9256"/>
<path fill-rule="evenodd" clip-rule="evenodd" d="M58.089 23.6398C56.8599 23.6398 55.7805 23.3941 54.851 22.9024C53.9214 22.4106 53.1994 21.7194 52.6849 20.8283C52.1701 19.9373 51.9128 18.908 51.9128 17.7404V13.016C51.9128 11.8484 52.1701 10.823 52.6849 9.9393C53.1994 9.05593 53.9217 8.36854 54.851 7.87683C55.7805 7.38541 56.8599 7.1394 58.089 7.1394C59.3028 7.1394 60.3782 7.37386 61.3155 7.84249C62.2527 8.31111 62.9786 8.95232 63.4934 9.76671C64.0079 10.5808 64.2655 11.4799 64.2655 12.463C64.2655 12.7241 64.1272 12.8546 63.8507 12.8546H60.8549C60.5784 12.8546 60.4401 12.8085 60.4401 12.7164V12.5782C60.4401 11.979 60.2288 11.468 59.8063 11.0456C59.3839 10.6231 58.8113 10.4118 58.0893 10.4118C57.3827 10.4118 56.814 10.6421 56.3839 11.1033C55.9537 11.5642 55.7385 12.1634 55.7385 12.9008V17.8556C55.7385 18.593 55.9765 19.1922 56.4528 19.6531C56.9291 20.114 57.5283 20.3446 58.2503 20.3446C58.9262 20.3446 59.4718 20.164 59.8865 19.8032C60.3013 19.442 60.5088 18.939 60.5088 18.2937V17.6945C60.5088 17.5871 60.4549 17.5332 60.3475 17.5332H58.2273C58.1044 17.5332 58.0043 17.495 57.9277 17.418C57.8507 17.3413 57.8125 17.2413 57.8125 17.1184V14.86C57.8125 14.7371 57.851 14.6371 57.9277 14.5604C58.0043 14.4834 58.1044 14.4452 58.2273 14.4452H63.8504C63.9733 14.4452 64.0731 14.4837 64.15 14.5604C64.2267 14.6371 64.2652 14.7371 64.2652 14.86V17.8559C64.2652 19.008 64.0079 20.0222 63.4931 20.8979C62.9786 21.7736 62.2563 22.4497 61.3267 22.9257C60.3975 23.4018 59.3181 23.6398 58.089 23.6398ZM70.9943 11.3567C72.0083 11.3567 72.9301 11.5296 73.7599 11.8751C74.5894 12.2208 75.2424 12.6972 75.7188 13.304C76.1951 13.9109 76.4331 14.5829 76.4331 15.3203V23.0406C76.4331 23.1635 76.3949 23.2632 76.3179 23.3402C76.2413 23.4169 76.1412 23.4554 76.0184 23.4554H73.0225C72.8996 23.4554 72.7996 23.4169 72.7229 23.3402C72.6459 23.2632 72.6077 23.1635 72.6077 23.0406V22.5797C72.6077 22.503 72.5885 22.4568 72.55 22.4414C72.5115 22.426 72.4695 22.4491 72.4233 22.5107C71.8087 23.2635 70.8176 23.6398 69.4505 23.6398C68.2368 23.6398 67.2687 23.3517 66.5467 22.7757C65.8247 22.1996 65.4635 21.3508 65.4635 20.2292C65.4635 19.0462 65.8744 18.1321 66.6965 17.4867C67.5183 16.8413 68.7054 16.5187 70.2569 16.5187H72.4461C72.5536 16.5187 72.6074 16.4648 72.6074 16.3573V15.9657C72.6074 15.5509 72.473 15.2244 72.2042 14.9861C71.9354 14.7481 71.555 14.6291 71.0636 14.6291C70.7102 14.6291 70.4067 14.6865 70.1533 14.802C69.8999 14.9171 69.7193 15.0746 69.6119 15.2744C69.5352 15.3819 69.4621 15.4627 69.3928 15.5166C69.3238 15.5702 69.2353 15.5894 69.1278 15.574L66.0396 15.1824C65.7631 15.1516 65.64 15.0441 65.6711 14.8597C65.7477 14.1989 66.0242 13.6036 66.5005 13.0737C66.9769 12.5438 67.603 12.1249 68.3789 11.8176C69.1545 11.5104 70.0266 11.3567 70.9943 11.3567ZM70.6027 20.8976C71.1865 20.8976 71.6666 20.7478 72.0429 20.4482C72.4195 20.1486 72.6074 19.7531 72.6074 19.2614V18.7543C72.6074 18.6469 72.5536 18.593 72.4461 18.593H71.1095C70.5257 18.593 70.0763 18.6927 69.7614 18.8926C69.4464 19.0924 69.2889 19.392 69.2889 19.7913C69.2889 20.1294 69.404 20.3982 69.6347 20.5977C69.8653 20.7976 70.1877 20.8976 70.6027 20.8976ZM92.0116 11.3567C93.21 11.3567 94.1472 11.7256 94.8231 12.463C95.4989 13.2004 95.837 14.2374 95.837 15.574V23.0406C95.837 23.1635 95.7985 23.2632 95.7218 23.3402C95.6451 23.4169 95.5451 23.4554 95.4222 23.4554H92.4495C92.3266 23.4554 92.2268 23.4169 92.1499 23.3402C92.0732 23.2632 92.0347 23.1635 92.0347 23.0406V16.4035C92.0347 15.881 91.9003 15.4547 91.6315 15.1243C91.3627 14.794 91.0054 14.6288 90.5599 14.6288C90.1143 14.6288 89.7493 14.7901 89.4651 15.1128C89.1809 15.4355 89.0388 15.8656 89.0388 16.4032V23.0403C89.0388 23.1632 89.0004 23.2629 88.9237 23.3399C88.8467 23.4166 88.747 23.4551 88.6241 23.4551H85.6282C85.5054 23.4551 85.4056 23.4166 85.3286 23.3399C85.252 23.2629 85.2135 23.1632 85.2135 23.0403V16.4032C85.2135 15.8807 85.0714 15.4544 84.7872 15.124C84.503 14.7937 84.138 14.6285 83.6924 14.6285C83.2777 14.6285 82.9319 14.759 82.6554 15.0201C82.3789 15.2812 82.2099 15.627 82.1483 16.0572V23.04C82.1483 23.1629 82.1099 23.2626 82.0332 23.3396C81.9562 23.4163 81.8564 23.4548 81.7336 23.4548H78.7377C78.6149 23.4548 78.5148 23.4163 78.4381 23.3396C78.3615 23.2626 78.323 23.1629 78.323 23.04V11.9559C78.323 11.833 78.3615 11.733 78.4381 11.6563C78.5151 11.5796 78.6149 11.5411 78.7377 11.5411H81.7336C81.8564 11.5411 81.9562 11.5796 82.0332 11.6563C82.1099 11.733 82.1483 11.833 82.1483 11.9559V12.7626C82.1483 12.8393 82.1676 12.8816 82.2061 12.8893C82.2445 12.897 82.2866 12.87 82.3328 12.8088C82.9473 11.841 83.9154 11.357 85.2366 11.357C85.9894 11.357 86.6537 11.5222 87.2301 11.8526C87.8061 12.1829 88.2555 12.6631 88.5782 13.2928C88.609 13.3544 88.6433 13.3813 88.6818 13.3736C88.7203 13.3659 88.7549 13.3313 88.7854 13.27C89.4305 11.9944 90.506 11.3567 92.0116 11.3567ZM103.672 20.3905C104.149 20.3905 104.59 20.3174 104.997 20.1714C105.405 20.0255 105.746 19.8295 106.023 19.5838C106.115 19.4763 106.215 19.4225 106.323 19.4225C106.415 19.4225 106.507 19.4761 106.599 19.5838L108.028 21.289C108.12 21.3964 108.166 21.4965 108.166 21.5886C108.166 21.696 108.12 21.7961 108.028 21.8881C107.505 22.4411 106.845 22.8716 106.046 23.1786C105.247 23.4858 104.394 23.6395 103.488 23.6395C102.443 23.6395 101.518 23.4512 100.711 23.0749C99.9045 22.6984 99.2399 22.1723 98.7174 21.4965C97.8725 20.421 97.4501 19.0536 97.4501 17.3943C97.4501 16.6569 97.5344 15.9654 97.7035 15.3203C98.0415 14.122 98.702 13.1578 99.6854 12.4281C100.669 11.6983 101.821 11.3333 103.142 11.3333C104.679 11.3333 105.919 11.8096 106.864 12.762C107.809 13.7146 108.427 15.0435 108.719 16.7487C108.781 17.1788 108.827 17.6474 108.857 18.1546C108.857 18.4311 108.719 18.5693 108.443 18.5693H101.483C101.437 18.5693 101.395 18.5847 101.356 18.6155C101.318 18.6463 101.306 18.6922 101.322 18.7537L101.46 19.2147C101.613 19.5835 101.882 19.8716 102.267 20.0788C102.651 20.2869 103.119 20.3905 103.672 20.3905ZM103.073 14.6291C102.29 14.6291 101.76 15.0053 101.483 15.7582C101.421 15.9118 101.383 16.027 101.368 16.1039V16.1501C101.368 16.2422 101.422 16.2884 101.529 16.2884H104.686C104.748 16.2884 104.79 16.2691 104.813 16.2306C104.836 16.1921 104.84 16.1501 104.825 16.1039L104.733 15.8043C104.61 15.4355 104.41 15.1477 104.133 14.9402C103.857 14.7327 103.503 14.6291 103.073 14.6291ZM116.486 23.6398C115.257 23.6398 114.177 23.3941 113.248 22.9024C112.318 22.4106 111.596 21.7194 111.082 20.8283C110.567 19.9373 110.31 18.908 110.31 17.7404V13.016C110.31 11.8484 110.567 10.823 111.082 9.9393C111.596 9.05593 112.318 8.36854 113.248 7.87683C114.177 7.38541 115.257 7.1394 116.486 7.1394C117.699 7.1394 118.775 7.37386 119.712 7.84249C120.649 8.31111 121.375 8.95232 121.89 9.76671C122.405 10.5808 122.662 11.4799 122.662 12.463C122.662 12.7241 122.524 12.8546 122.247 12.8546H119.251C118.975 12.8546 118.836 12.8085 118.836 12.7164V12.5782C118.836 11.979 118.625 11.468 118.203 11.0456C117.78 10.6231 117.208 10.4118 116.486 10.4118C115.779 10.4118 115.211 10.6421 114.78 11.1033C114.35 11.5642 114.135 12.1634 114.135 12.9008V17.8556C114.135 18.593 114.373 19.1922 114.849 19.6531C115.326 20.114 115.925 20.3446 116.647 20.3446C117.323 20.3446 117.868 20.164 118.283 19.8032C118.698 19.442 118.905 18.939 118.905 18.2937V17.6945C118.905 17.5871 118.851 17.5332 118.744 17.5332H116.624C116.501 17.5332 116.401 17.495 116.324 17.418C116.247 17.3413 116.209 17.2413 116.209 17.1184V14.86C116.209 14.7371 116.247 14.6371 116.324 14.5604C116.401 14.4834 116.501 14.4452 116.624 14.4452H122.247C122.37 14.4452 122.469 14.4837 122.546 14.5604C122.623 14.6371 122.662 14.7371 122.662 14.86V17.8559C122.662 19.008 122.404 20.0222 121.889 20.8979C121.375 21.7736 120.653 22.4497 119.723 22.9257C118.794 23.4018 117.715 23.6398 116.486 23.6398ZM129.829 23.6398C128.446 23.6398 127.275 23.2712 126.314 22.5335C125.354 21.7961 124.705 20.7976 124.367 19.5376C124.183 18.9077 124.091 18.2164 124.091 17.4636C124.091 16.6954 124.19 15.9503 124.39 15.2283C124.744 14.0145 125.4 13.0657 126.361 12.3822C127.321 11.6983 128.485 11.3567 129.852 11.3567C131.204 11.3567 132.348 11.6986 133.286 12.3822C134.223 13.0657 134.876 14.0068 135.245 15.2052C135.46 15.8964 135.567 16.6338 135.567 17.4174C135.567 18.1241 135.483 18.8002 135.314 19.4456C134.991 20.736 134.346 21.7579 133.378 22.5107C132.41 23.2635 131.227 23.6398 129.829 23.6398ZM129.829 20.3674C130.274 20.3674 130.647 20.2253 130.947 19.9411C131.246 19.6569 131.457 19.2688 131.58 18.7774C131.673 18.3781 131.719 17.9402 131.719 17.4639C131.719 17.003 131.665 16.5574 131.557 16.1273C131.435 15.651 131.227 15.2824 130.935 15.021C130.643 14.7599 130.275 14.6294 129.829 14.6294C129.368 14.6294 128.996 14.7599 128.711 15.021C128.427 15.2821 128.223 15.651 128.101 16.1273C127.993 16.4654 127.939 16.9109 127.939 17.4639C127.939 17.9402 127.985 18.3781 128.078 18.7774C128.216 19.2691 128.431 19.6569 128.723 19.9411C129.015 20.2253 129.383 20.3674 129.829 20.3674ZM142.688 23.6398C141.305 23.6398 140.134 23.2712 139.174 22.5335C138.213 21.7961 137.565 20.7976 137.226 19.5376C137.042 18.9077 136.95 18.2164 136.95 17.4636C136.95 16.6954 137.05 15.9503 137.25 15.2283C137.603 14.0145 138.26 13.0657 139.22 12.3822C140.18 11.6983 141.344 11.3567 142.711 11.3567C144.063 11.3567 145.208 11.6986 146.145 12.3822C147.082 13.0657 147.735 14.0068 148.104 15.2052C148.319 15.8964 148.427 16.6338 148.427 17.4174C148.427 18.1241 148.342 18.8002 148.173 19.4456C147.851 20.736 147.205 21.7579 146.237 22.5107C145.269 23.2635 144.086 23.6398 142.688 23.6398ZM142.688 20.3674C143.134 20.3674 143.506 20.2253 143.806 19.9411C144.105 19.6569 144.316 19.2688 144.44 18.7774C144.532 18.3781 144.578 17.9402 144.578 17.4639C144.578 17.003 144.524 16.5574 144.417 16.1273C144.294 15.651 144.086 15.2824 143.794 15.021C143.502 14.7599 143.134 14.6294 142.688 14.6294C142.227 14.6294 141.855 14.7599 141.57 15.021C141.286 15.2821 141.082 15.651 140.959 16.1273C140.852 16.4654 140.798 16.9109 140.798 17.4639C140.798 17.9402 140.844 18.3781 140.936 18.7774C141.075 19.2691 141.29 19.6569 141.582 19.9411C141.874 20.2253 142.242 20.3674 142.688 20.3674ZM157.23 7.73858C157.23 7.61572 157.268 7.51566 157.345 7.43899C157.422 7.36202 157.522 7.32354 157.645 7.32354H160.64C160.763 7.32354 160.863 7.36202 160.94 7.43899C161.017 7.51566 161.055 7.61572 161.055 7.73858V23.0406C161.055 23.1635 161.017 23.2632 160.94 23.3402C160.863 23.4169 160.763 23.4554 160.64 23.4554H157.645C157.522 23.4554 157.422 23.4169 157.345 23.3402C157.268 23.2632 157.23 23.1635 157.23 23.0406V22.4876C157.23 22.4106 157.211 22.3648 157.172 22.3494C157.134 22.334 157.092 22.3571 157.045 22.4186C156.462 23.2327 155.586 23.6401 154.418 23.6401C153.42 23.6401 152.498 23.3097 151.653 22.6493C150.808 21.9888 150.232 21.1359 149.924 20.0912C149.679 19.3384 149.555 18.455 149.555 17.4411C149.555 16.3502 149.717 15.3825 150.039 14.5373C150.393 13.5847 150.965 12.8126 151.756 12.2211C152.547 11.6297 153.435 11.3339 154.418 11.3339C155.586 11.3339 156.461 11.6874 157.045 12.394C157.091 12.4553 157.133 12.4784 157.172 12.463C157.21 12.4476 157.23 12.4017 157.23 12.3247V7.73858H157.23ZM156.815 19.3994C157.076 18.9077 157.206 18.278 157.206 17.5098C157.206 16.6649 157.068 15.9888 156.792 15.482C156.469 14.9595 156.023 14.6984 155.455 14.6984C154.856 14.6984 154.395 14.9671 154.072 15.505C153.796 16.0122 153.658 16.6803 153.658 17.5101C153.658 18.2937 153.788 18.9311 154.049 19.4228C154.372 19.9912 154.841 20.2753 155.455 20.2753C156.039 20.2753 156.492 19.9835 156.815 19.3994ZM168.107 23.6398C167.016 23.6398 166.067 23.49 165.261 23.1904C164.454 22.8908 163.832 22.4684 163.394 21.9228C162.956 21.3775 162.737 20.7514 162.737 20.0444V19.9293C162.737 19.8064 162.776 19.7067 162.852 19.6297C162.929 19.553 163.029 19.5145 163.152 19.5145H165.987C166.263 19.5145 166.401 19.5607 166.401 19.6528V19.791C166.401 20.0829 166.559 20.3248 166.874 20.5169C167.189 20.709 167.592 20.805 168.084 20.805C168.514 20.805 168.86 20.7318 169.121 20.5859C169.382 20.4399 169.512 20.244 169.512 19.9983C169.512 19.7525 169.374 19.572 169.098 19.4568C168.821 19.3414 168.383 19.23 167.784 19.1226C166.816 18.9382 166.033 18.7155 165.434 18.4544C164.665 18.1318 164.047 17.7247 163.578 17.233C163.11 16.7413 162.875 16.0808 162.875 15.251C162.875 14.0527 163.34 13.1039 164.27 12.405C165.199 11.706 166.424 11.3564 167.945 11.3564C168.975 11.3564 169.877 11.5216 170.653 11.852C171.429 12.1824 172.032 12.6471 172.462 13.2463C172.892 13.8455 173.108 14.5367 173.108 15.3203C173.108 15.3973 173.069 15.4624 172.992 15.5163C172.916 15.5699 172.816 15.5968 172.693 15.5968H169.95C169.674 15.5968 169.536 15.5506 169.536 15.4586V15.3203C169.536 15.0284 169.397 14.7904 169.121 14.606C168.844 14.4216 168.468 14.3295 167.992 14.3295C167.562 14.3295 167.212 14.4026 166.943 14.5486C166.675 14.6945 166.54 14.8982 166.54 15.1593C166.54 15.4204 166.686 15.6087 166.978 15.7238C167.27 15.839 167.762 15.9657 168.453 16.1042C169.39 16.2886 170.02 16.4346 170.342 16.5421C171.28 16.8493 172.013 17.2641 172.543 17.7866C173.073 18.3088 173.338 19.008 173.338 19.8837C173.338 21.082 172.866 22.0077 171.921 22.6605C170.976 23.3133 169.705 23.6398 168.107 23.6398Z" fill="white"/>
</svg>
