<svg width="180" height="78" viewBox="0 0 180 78" fill="none" xmlns="http://www.w3.org/2000/svg">
<g clip-path="url(#clip0_603_2)">
<path d="M2.70014 77.346C2.70014 77.076 4.62614 63.576 4.78814 62.694L4.89614 62.1H2.53814C-0.0718592 62.1 0.0361407 62.154 0.288141 60.858L0.396141 60.3H2.80814C4.14014 60.3 5.22014 60.228 5.22014 60.138C5.22014 59.922 14.2021 1.116 14.3281 0.486C14.4361 0 14.4361 0 15.9121 0C17.8561 0 19.2241 0.27 19.7461 0.756C19.9801 0.972 20.2861 1.548 20.4301 2.052C20.5921 2.556 22.6441 15.768 25.0381 31.41C27.4141 47.052 29.3941 59.958 29.4301 60.084C29.4841 60.246 44.6941 60.3 104.67 60.3H179.82V60.804C179.82 61.074 179.694 61.488 179.532 61.704L179.262 62.1H29.6641L29.7721 62.604C29.8801 63.126 32.0401 77.31 32.0401 77.472C32.0401 77.526 30.6361 77.58 28.9081 77.58H25.7761L25.6681 77.004C25.5421 76.23 23.7601 62.586 23.7601 62.316C23.7601 62.154 22.2481 62.1 17.4241 62.136L11.0701 62.19L10.8541 63.45C10.6741 64.62 9.00014 77.184 9.00014 77.454C9.00014 77.526 7.57814 77.58 5.85014 77.58C3.36614 77.58 2.70014 77.526 2.70014 77.346ZM23.4001 60.012C23.4001 59.724 17.9281 17.622 17.7121 16.326C17.6581 15.948 17.5681 15.678 17.5141 15.714C17.4061 15.822 16.2001 23.274 15.4081 28.746C15.0481 31.104 14.1661 37.98 13.4101 44.01C12.6721 50.058 11.8981 56.142 11.7001 57.546C11.5021 58.968 11.3401 60.156 11.3401 60.21C11.3401 60.264 14.0581 60.3 17.3701 60.3C22.8061 60.3 23.4001 60.264 23.4001 60.012Z" fill="black"/>
<path d="M41.1663 59.04C40.1223 58.77 39.5643 58.428 38.7543 57.546C37.6923 56.394 37.5303 55.764 37.5303 52.704C37.5303 49.302 37.5123 49.356 40.2303 48.15L41.2203 47.7V54.756L41.8323 55.368C42.5523 56.088 43.4883 56.196 44.4063 55.62C45.2343 55.116 45.4143 54.27 45.3243 51.12C45.2163 47.754 45.1083 47.448 41.8323 41.256C37.5303 33.192 37.5303 33.174 37.5303 28.8C37.5303 26.064 37.5663 25.758 37.9623 24.894C38.4303 23.832 39.4743 22.788 40.4823 22.374C40.8423 22.212 41.8683 22.05 42.7683 21.996C45.1083 21.87 46.2423 22.23 47.4663 23.49C48.5463 24.606 48.9603 25.704 48.9603 27.486C48.9603 29.34 48.6903 29.772 46.9443 30.6L45.4503 31.338L45.3603 28.944C45.2523 26.352 45.1083 25.902 44.2803 25.47C43.3623 25.002 42.5343 25.11 41.8143 25.83L41.1843 26.46L41.2563 29.466C41.3283 33.138 41.1663 32.67 45.0723 40.032C48.7803 47.052 48.8343 47.196 48.9243 51.606C48.9783 54.432 48.9423 55.224 48.7083 55.926C48.3123 57.096 47.5023 58.05 46.3683 58.626C45.5943 59.022 45.1803 59.112 43.6503 59.148C42.6603 59.184 41.5443 59.13 41.1663 59.04ZM64.2603 40.608V22.32H65.5383C66.7623 22.32 67.4463 22.518 67.7163 22.932C67.7883 23.04 67.8603 30.366 67.8603 39.186V55.26L72.0723 55.296L76.3023 55.35L75.7083 56.7C74.7543 58.842 75.0063 58.752 69.1923 58.824L64.2603 58.878V40.608ZM89.3163 58.284C89.3703 57.96 90.6303 49.716 92.0883 39.978L94.7703 22.284L96.1563 22.356C97.7403 22.446 98.1723 22.698 98.4603 23.742C98.6043 24.246 103.86 58.338 103.86 58.752C103.86 58.806 102.978 58.86 101.88 58.86C100.764 58.86 99.9003 58.788 99.9003 58.698C99.9003 58.266 96.6603 33.768 96.5883 33.714C96.5523 33.66 96.4623 33.948 96.4083 34.326C96.2283 35.37 93.2403 58.374 93.2403 58.644C93.2403 58.806 92.7183 58.86 91.2423 58.86H89.2263L89.3163 58.284ZM117.9 40.59V22.32H118.764C120.006 22.338 120.96 22.59 121.446 23.094C121.824 23.454 122.094 24.516 123.48 31.248C125.46 40.842 125.874 42.66 126.036 42.66C126.126 42.66 126.18 38.088 126.18 32.49V22.32H129.78V58.914L128.52 58.824C127.206 58.716 126.558 58.428 126.09 57.708C125.946 57.492 124.884 53.1 123.732 47.952C122.598 42.822 121.626 38.592 121.572 38.538C121.536 38.502 121.5 43.056 121.5 48.654V58.86H117.9V40.59ZM146.34 40.59V22.284L150.444 22.356C154.944 22.428 155.25 22.5 156.51 23.598C156.888 23.94 157.392 24.606 157.608 25.11L158.04 26.01V55.17L157.608 56.07C157.392 56.574 156.888 57.24 156.51 57.582C155.232 58.698 154.944 58.752 150.444 58.824L146.34 58.896V40.59ZM153.54 54.99C153.828 54.846 154.152 54.558 154.26 54.378C154.386 54.144 154.44 49.446 154.44 40.554C154.44 25.578 154.512 26.46 153.216 26.1C152.856 26.01 151.956 25.92 151.254 25.92H149.94V55.26H151.47C152.496 55.26 153.198 55.17 153.54 54.99ZM176.616 58.572L176.22 58.302V22.284L177.588 22.356C178.83 22.41 179.01 22.464 179.388 22.914L179.82 23.418V58.86H178.416C177.444 58.86 176.904 58.77 176.616 58.572Z" fill="black"/>
</g>
<defs>
<clipPath id="clip0_603_2">
<rect width="180" height="77.58" fill="white"/>
</clipPath>
</defs>
</svg>
