<svg width="120" height="24" viewBox="0 0 120 24" fill="none" xmlns="http://www.w3.org/2000/svg">
<g clip-path="url(#clip0_405_2)">
<path opacity="0.995" d="M11.6143 23.2959C18.0287 23.2959 23.2285 18.096 23.2285 11.6817C23.2285 5.26727 18.0287 0.0673828 11.6143 0.0673828C5.19989 0.0673828 0 5.26727 0 11.6817C0 18.096 5.19989 23.2959 11.6143 23.2959Z" fill="black"/>
<path opacity="0.995" d="M11.8477 9.34912V13.9694H23.0169C23.1652 13.2064 23.3348 12.4434 23.3348 11.6593C23.3348 10.8751 23.1652 10.1333 23.0169 9.37032L11.8477 9.34912Z" fill="black"/>
<path opacity="0.995" d="M17.2083 11.8704C17.3111 8.78211 14.8909 6.1952 11.8026 6.09236C8.71432 5.98953 6.12741 8.40972 6.02458 11.498C5.92174 14.5863 8.34193 17.1732 11.4302 17.276C14.5185 17.3789 17.1054 14.9587 17.2083 11.8704Z" fill="#D4AA00"/>
<path opacity="0.995" d="M34.7578 4.02929L38.1488 0.00244141L53.1541 19.2889L49.7843 23.2946L34.7578 4.02929Z" fill="black"/>
<path opacity="0.995" d="M73.1187 9.37207H57.8379V13.844H73.1187V9.37207Z" fill="black"/>
<path opacity="0.995" d="M20.0919 12.4216C20.5016 12.4216 20.8337 12.0895 20.8337 11.6798C20.8337 11.2701 20.5016 10.938 20.0919 10.938C19.6822 10.938 19.3501 11.2701 19.3501 11.6798C19.3501 12.0895 19.6822 12.4216 20.0919 12.4216Z" fill="#CF9C1A"/>
<path opacity="0.995" d="M21.7444 12.4216C22.1658 12.4216 22.5074 12.0895 22.5074 11.6798C22.5074 11.2701 22.1658 10.938 21.7444 10.938C21.323 10.938 20.9814 11.2701 20.9814 11.6798C20.9814 12.0895 21.323 12.4216 21.7444 12.4216Z" fill="#CF9C1A"/>
<path opacity="0.995" d="M18.4388 12.4216C18.8485 12.4216 19.1806 12.0895 19.1806 11.6798C19.1806 11.2701 18.8485 10.938 18.4388 10.938C18.0291 10.938 17.697 11.2701 17.697 11.6798C17.697 12.0895 18.0291 12.4216 18.4388 12.4216Z" fill="#CF9C1A"/>
<path opacity="0.995" d="M11.6572 16.9569C14.5717 16.9569 16.9345 14.5942 16.9345 11.6796C16.9345 8.76507 14.5717 6.40234 11.6572 6.40234C8.7426 6.40234 6.37988 8.76507 6.37988 11.6796C6.37988 14.5942 8.7426 16.9569 11.6572 16.9569Z" fill="#3B2809"/>
<path opacity="0.995" d="M11.657 16.5972C14.3726 16.5972 16.574 14.3958 16.574 11.6802C16.574 8.96459 14.3726 6.76318 11.657 6.76318C8.9414 6.76318 6.73999 8.96459 6.73999 11.6802C6.73999 14.3958 8.9414 16.5972 11.657 16.5972Z" fill="#7A5A0E"/>
<path opacity="0.995" d="M11.6574 16.0882C14.092 16.0882 16.0657 14.1145 16.0657 11.6798C16.0657 9.24516 14.092 7.27148 11.6574 7.27148C9.2227 7.27148 7.24902 9.24516 7.24902 11.6798C7.24902 14.1145 9.2227 16.0882 11.6574 16.0882Z" fill="#B19018"/>
<path opacity="0.995" d="M11.6568 15.4518C13.7403 15.4518 15.4293 13.7628 15.4293 11.6793C15.4293 9.59575 13.7403 7.90674 11.6568 7.90674C9.57329 7.90674 7.88428 9.59575 7.88428 11.6793C7.88428 13.7628 9.57329 15.4518 11.6568 15.4518Z" fill="#8B6910"/>
<path opacity="0.995" d="M11.657 15.1343C13.5649 15.1343 15.1116 13.5876 15.1116 11.6797C15.1116 9.77178 13.5649 8.2251 11.657 8.2251C9.74907 8.2251 8.20239 9.77178 8.20239 11.6797C8.20239 13.5876 9.74907 15.1343 11.657 15.1343Z" fill="#503708"/>
<path opacity="0.995" d="M11.6573 14.9019C13.4364 14.9019 14.8787 13.4596 14.8787 11.6805C14.8787 9.90129 13.4364 8.45898 11.6573 8.45898C9.8781 8.45898 8.43579 9.90129 8.43579 11.6805C8.43579 13.4596 9.8781 14.9019 11.6573 14.9019Z" fill="#B18F2A"/>
<g opacity="0.995">
<path d="M11.6567 13.8027C12.8273 13.8027 13.7761 12.8539 13.7761 11.6834C13.7761 10.5128 12.8273 9.56396 11.6567 9.56396C10.4862 9.56396 9.53735 10.5128 9.53735 11.6834C9.53735 12.8539 10.4862 13.8027 11.6567 13.8027Z" fill="url(#paint0_radial_405_2)"/>
<path d="M11.6567 13.8027C12.8273 13.8027 13.7761 12.8539 13.7761 11.6834C13.7761 10.5128 12.8273 9.56396 11.6567 9.56396C10.4862 9.56396 9.53735 10.5128 9.53735 11.6834C9.53735 12.8539 10.4862 13.8027 11.6567 13.8027Z" stroke="#FFBB00" stroke-width="0.236545" stroke-miterlimit="2.3948" stroke-linecap="square"/>
</g>
<path opacity="0.995" d="M11.6568 12.8893C12.324 12.8893 12.8648 12.3484 12.8648 11.6812C12.8648 11.014 12.324 10.4731 11.6568 10.4731C10.9896 10.4731 10.4487 11.014 10.4487 11.6812C10.4487 12.3484 10.9896 12.8893 11.6568 12.8893Z" fill="#A68523"/>
<path opacity="0.995" d="M11.657 12.5489C12.1369 12.5489 12.526 12.1599 12.526 11.68C12.526 11.2001 12.1369 10.811 11.657 10.811C11.1771 10.811 10.7881 11.2001 10.7881 11.68C10.7881 12.1599 11.1771 12.5489 11.657 12.5489Z" fill="#312514"/>
<path opacity="0.995" d="M11.6567 12.4639C12.0898 12.4639 12.4409 12.1128 12.4409 11.6797C12.4409 11.2466 12.0898 10.8955 11.6567 10.8955C11.2236 10.8955 10.8726 11.2466 10.8726 11.6797C10.8726 12.1128 11.2236 12.4639 11.6567 12.4639Z" fill="#65480E"/>
<path opacity="0.995" d="M11.6568 12.4216C12.0665 12.4216 12.3986 12.0895 12.3986 11.6798C12.3986 11.2701 12.0665 10.938 11.6568 10.938C11.2471 10.938 10.915 11.2701 10.915 11.6798C10.915 12.0895 11.2471 12.4216 11.6568 12.4216Z" fill="black"/>
<path opacity="0.995" d="M11.6566 11.7424C11.6917 11.7424 11.7202 11.7139 11.7202 11.6788C11.7202 11.6437 11.6917 11.6152 11.6566 11.6152C11.6215 11.6152 11.593 11.6437 11.593 11.6788C11.593 11.7139 11.6215 11.7424 11.6566 11.7424Z" fill="#FFFEDD"/>
<path opacity="0.995" d="M11.6585 11.7041C11.6709 11.7041 11.6809 11.6941 11.6809 11.6817C11.6809 11.6692 11.6709 11.6592 11.6585 11.6592C11.646 11.6592 11.636 11.6692 11.636 11.6817C11.636 11.6941 11.646 11.7041 11.6585 11.7041Z" fill="#D4AA00"/>
<path d="M13.5215 7.779C13.5215 7.779 14.2633 7.90616 15.2171 9.00825C16.1708 10.1315 15.4926 10.8097 15.1747 10.2163C14.8568 9.62287 14.2845 8.8387 13.6063 8.49959C12.9281 8.16049 12.6102 7.56706 13.5215 7.779Z" fill="#ECECEC"/>
<path opacity="0.995" d="M73.1614 18.8228H57.8806V23.2947H73.1614V18.8228Z" fill="black"/>
<path opacity="0.995" d="M73.1614 0.0463867H57.8806V4.5183H73.1614V0.0463867Z" fill="black"/>
<path opacity="0.995" d="M62.1199 0.0463867H57.6479V23.2961H62.1199V0.0463867Z" fill="black"/>
<path opacity="0.995" d="M30.2649 0.0463867H25.793V23.2961H30.2649V0.0463867Z" fill="black"/>
<path opacity="0.995" d="M38.1492 0.0463867H33.6772V23.2961H38.1492V0.0463867Z" fill="black"/>
<path opacity="0.995" d="M54.2563 0.0463867H49.7844V23.2961H54.2563V0.0463867Z" fill="black"/>
<path d="M97.7466 22.1881L90.3711 1.03657C90.1379 -0.0867041 88.6332 0.0828473 88.6332 0.0828473H85.4965C84.1613 0.0828473 83.9917 0.761053 83.9917 0.761053L81.618 7.62788C81.618 7.62788 79.1383 14.6855 78.0998 17.7374C77.0613 20.7893 76.2559 22.6756 76.6798 23.0147C77.1037 23.3538 78.0362 23.375 79.541 23.3326C81.0458 23.2902 81.0246 22.7603 81.0246 22.7603L82.5929 17.9705H91.24L92.66 22.1669C92.9144 23.5021 93.9529 23.2902 93.9529 23.2902C93.9529 23.2902 95.1185 23.3114 96.5809 23.3326C98.0433 23.3538 97.7466 22.1881 97.7466 22.1881ZM83.6314 14.3676L86.9165 4.57596L90.1803 14.3676H83.6314Z" fill="white" stroke="black" stroke-miterlimit="10"/>
<path d="M119.026 6.31491C118.411 5.08566 116.885 2.09732 113.642 1.01643C110.4 -0.043265 108.026 0.14748 105.589 0.168674C103.151 0.189868 101.88 0.14748 101.88 0.14748C101.88 0.14748 100.735 0.35942 100.735 1.44031V22.2104C100.735 22.2104 101.032 23.2912 102.198 23.2277C103.363 23.1641 108.577 23.2277 108.577 23.2277C108.577 23.2277 112.583 23.1429 114.872 21.7653C117.161 20.3877 118.453 18.9041 119.386 15.725C120.319 12.5035 119.619 7.56535 119.026 6.31491ZM113.261 17.5053C111.375 20.2817 105.377 19.5187 105.377 19.5187V3.83522C105.377 3.83522 108.556 3.72925 110.527 4.13194C112.498 4.55582 114.511 6.6964 114.808 9.45161C115.105 12.2068 115.147 14.7289 113.261 17.5053Z" fill="white" stroke="black" stroke-miterlimit="10"/>
</g>
<defs>
<radialGradient id="paint0_radial_405_2" cx="0" cy="0" r="1" gradientUnits="userSpaceOnUse" gradientTransform="translate(11.6487 11.6935) scale(2.23492)">
<stop stop-color="#D4AA00"/>
<stop offset="1" stop-color="#D4AA00" stop-opacity="0"/>
</radialGradient>
<clipPath id="clip0_405_2">
<rect width="120" height="23.4193" fill="white"/>
</clipPath>
</defs>
</svg>
