<svg width="164" height="60" viewBox="0 0 164 60" fill="none" xmlns="http://www.w3.org/2000/svg">
<g clip-path="url(#clip0_410_43)">
<path opacity="0.995" d="M17.0858 45.2537C25.6914 45.2537 32.6675 38.2776 32.6675 29.672C32.6675 21.0665 25.6914 14.0903 17.0858 14.0903C8.48031 14.0903 1.50415 21.0665 1.50415 29.672C1.50415 38.2776 8.48031 45.2537 17.0858 45.2537Z" fill="white"/>
<path opacity="0.995" d="M17.3989 26.543V32.7415H32.3835C32.5825 31.7179 32.81 30.6943 32.81 29.6422C32.81 28.5902 32.5825 27.595 32.3835 26.5714L17.3989 26.543Z" fill="black"/>
<path opacity="0.995" d="M24.5907 29.9253C24.7287 25.7821 21.4818 22.3115 17.3385 22.1735C13.1953 22.0356 9.72468 25.2825 9.58672 29.4257C9.44875 33.569 12.6957 37.0396 16.8389 37.1775C20.9822 37.3155 24.4528 34.0686 24.5907 29.9253Z" fill="#D4AA00"/>
<path opacity="0.995" d="M48.135 19.4058L52.6844 14.0034L72.8155 39.8781L68.2945 45.2521L48.135 19.4058Z" fill="white"/>
<path opacity="0.995" d="M99.6001 26.5737H79.0994V32.5733H99.6001V26.5737Z" fill="white"/>
<path opacity="0.995" d="M28.4593 30.6647C29.0089 30.6647 29.4545 30.2191 29.4545 29.6695C29.4545 29.1199 29.0089 28.6743 28.4593 28.6743C27.9097 28.6743 27.4641 29.1199 27.4641 29.6695C27.4641 30.2191 27.9097 30.6647 28.4593 30.6647Z" fill="#CF9C1A"/>
<path opacity="0.995" d="M30.6764 30.6647C31.2418 30.6647 31.7001 30.2191 31.7001 29.6695C31.7001 29.1199 31.2418 28.6743 30.6764 28.6743C30.1111 28.6743 29.6528 29.1199 29.6528 29.6695C29.6528 30.2191 30.1111 30.6647 30.6764 30.6647Z" fill="#CF9C1A"/>
<path opacity="0.995" d="M26.2415 30.6647C26.7911 30.6647 27.2367 30.2191 27.2367 29.6695C27.2367 29.1199 26.7911 28.6743 26.2415 28.6743C25.6919 28.6743 25.2463 29.1199 25.2463 29.6695C25.2463 30.2191 25.6919 30.6647 26.2415 30.6647Z" fill="#CF9C1A"/>
<path opacity="0.995" d="M17.1432 36.7494C21.0534 36.7494 24.2232 33.5795 24.2232 29.6694C24.2232 25.7592 21.0534 22.5894 17.1432 22.5894C13.2331 22.5894 10.0632 25.7592 10.0632 29.6694C10.0632 33.5795 13.2331 36.7494 17.1432 36.7494Z" fill="#3B2809"/>
<path opacity="0.995" d="M17.143 36.2665C20.7862 36.2665 23.7396 33.3131 23.7396 29.6699C23.7396 26.0267 20.7862 23.0732 17.143 23.0732C13.4998 23.0732 10.5464 26.0267 10.5464 29.6699C10.5464 33.3131 13.4998 36.2665 17.143 36.2665Z" fill="#7A5A0E"/>
<path opacity="0.995" d="M17.1435 35.5838C20.4098 35.5838 23.0577 32.9359 23.0577 29.6696C23.0577 26.4033 20.4098 23.7554 17.1435 23.7554C13.8771 23.7554 11.2292 26.4033 11.2292 29.6696C11.2292 32.9359 13.8771 35.5838 17.1435 35.5838Z" fill="#B19018"/>
<path opacity="0.995" d="M17.1427 34.7303C19.938 34.7303 22.204 32.4643 22.204 29.6691C22.204 26.8739 19.938 24.6079 17.1427 24.6079C14.3475 24.6079 12.0815 26.8739 12.0815 29.6691C12.0815 32.4643 14.3475 34.7303 17.1427 34.7303Z" fill="#8B6910"/>
<path opacity="0.995" d="M17.143 34.3041C19.7027 34.3041 21.7777 32.229 21.7777 29.6694C21.7777 27.1097 19.7027 25.0347 17.143 25.0347C14.5833 25.0347 12.5083 27.1097 12.5083 29.6694C12.5083 32.229 14.5833 34.3041 17.143 34.3041Z" fill="#503708"/>
<path opacity="0.995" d="M17.1435 33.9925C19.5304 33.9925 21.4654 32.0575 21.4654 29.6706C21.4654 27.2836 19.5304 25.3486 17.1435 25.3486C14.7565 25.3486 12.8215 27.2836 12.8215 29.6706C12.8215 32.0575 14.7565 33.9925 17.1435 33.9925Z" fill="#B18F2A"/>
<g opacity="0.995">
<path d="M17.1427 32.5178C18.713 32.5178 19.9861 31.2448 19.9861 29.6744C19.9861 28.1041 18.713 26.8311 17.1427 26.8311C15.5723 26.8311 14.2993 28.1041 14.2993 29.6744C14.2993 31.2448 15.5723 32.5178 17.1427 32.5178Z" fill="url(#paint0_radial_410_43)"/>
<path d="M17.1427 32.5178C18.713 32.5178 19.9861 31.2448 19.9861 29.6744C19.9861 28.1041 18.713 26.8311 17.1427 26.8311C15.5723 26.8311 14.2993 28.1041 14.2993 29.6744C14.2993 31.2448 15.5723 32.5178 17.1427 32.5178Z" stroke="#FFBB00" stroke-width="0.317349" stroke-miterlimit="2.3948" stroke-linecap="square"/>
</g>
<path opacity="0.995" d="M17.1427 31.2922C18.0378 31.2922 18.7634 30.5666 18.7634 29.6715C18.7634 28.7764 18.0378 28.0508 17.1427 28.0508C16.2476 28.0508 15.522 28.7764 15.522 29.6715C15.522 30.5666 16.2476 31.2922 17.1427 31.2922Z" fill="#A68523"/>
<path opacity="0.995" d="M17.1431 30.8355C17.7869 30.8355 18.3089 30.3135 18.3089 29.6697C18.3089 29.0258 17.7869 28.5039 17.1431 28.5039C16.4992 28.5039 15.9773 29.0258 15.9773 29.6697C15.9773 30.3135 16.4992 30.8355 17.1431 30.8355Z" fill="#312514"/>
<path opacity="0.995" d="M17.1426 30.7213C17.7237 30.7213 18.1947 30.2503 18.1947 29.6692C18.1947 29.0882 17.7237 28.6172 17.1426 28.6172C16.5616 28.6172 16.0906 29.0882 16.0906 29.6692C16.0906 30.2503 16.5616 30.7213 17.1426 30.7213Z" fill="#65480E"/>
<path opacity="0.995" d="M17.1429 30.6647C17.6925 30.6647 18.1381 30.2191 18.1381 29.6695C18.1381 29.1199 17.6925 28.6743 17.1429 28.6743C16.5933 28.6743 16.1477 29.1199 16.1477 29.6695C16.1477 30.2191 16.5933 30.6647 17.1429 30.6647Z" fill="white"/>
<path opacity="0.995" d="M17.1424 29.7536C17.1895 29.7536 17.2277 29.7154 17.2277 29.6683C17.2277 29.6212 17.1895 29.583 17.1424 29.583C17.0953 29.583 17.0571 29.6212 17.0571 29.6683C17.0571 29.7154 17.0953 29.7536 17.1424 29.7536Z" fill="#FFFEDD"/>
<path opacity="0.995" d="M17.1451 29.7024C17.1618 29.7024 17.1753 29.6889 17.1753 29.6722C17.1753 29.6556 17.1618 29.6421 17.1451 29.6421C17.1285 29.6421 17.115 29.6556 17.115 29.6722C17.115 29.6889 17.1285 29.7024 17.1451 29.7024Z" fill="#D4AA00"/>
<path d="M19.6445 24.4363C19.6445 24.4363 20.6397 24.6069 21.9192 26.0855C23.1988 27.5925 22.2889 28.5024 21.8624 27.7062C21.4359 26.9101 20.6682 25.858 19.7583 25.4031C18.8484 24.9481 18.4219 24.152 19.6445 24.4363Z" fill="#ECECEC"/>
<path opacity="0.995" d="M99.6575 39.2524H79.1567V45.252H99.6575V39.2524Z" fill="white"/>
<path opacity="0.995" d="M99.6575 14.062H79.1567V20.0615H99.6575V14.062Z" fill="white"/>
<path opacity="0.995" d="M84.844 14.062H78.8445V45.2538H84.844V14.062Z" fill="white"/>
<path opacity="0.995" d="M42.1074 14.062H36.1079V45.2538H42.1074V14.062Z" fill="white"/>
<path opacity="0.995" d="M52.6851 14.062H46.6855V45.2538H52.6851V14.062Z" fill="white"/>
<path opacity="0.995" d="M74.2942 14.062H68.2947V45.2538H74.2942V14.062Z" fill="white"/>
<path d="M132.641 43.7677L122.746 15.3909C122.433 13.8839 120.414 14.1114 120.414 14.1114H116.206C114.415 14.1114 114.187 15.0212 114.187 15.0212L111.003 24.2338C111.003 24.2338 107.676 33.7022 106.283 37.7967C104.889 41.8911 103.809 44.4217 104.378 44.8767C104.946 45.3316 106.197 45.36 108.216 45.3032C110.235 45.2463 110.207 44.5355 110.207 44.5355L112.311 38.1094H123.912L125.817 43.7393C126.158 45.5306 127.551 45.2463 127.551 45.2463C127.551 45.2463 129.115 45.2747 131.077 45.3032C133.039 45.3316 132.641 43.7677 132.641 43.7677ZM113.704 33.2757L118.111 20.1393L122.49 33.2757H113.704Z" fill="white" stroke="white" stroke-width="1.3416" stroke-miterlimit="10"/>
<path d="M161.189 22.4719C160.364 20.8227 158.317 16.8136 153.967 15.3634C149.616 13.9418 146.432 14.1977 143.162 14.2261C139.892 14.2545 138.186 14.1977 138.186 14.1977C138.186 14.1977 136.65 14.482 136.65 15.9321V43.7972C136.65 43.7972 137.048 45.2473 138.612 45.162C140.176 45.0767 147.171 45.162 147.171 45.162C147.171 45.162 152.545 45.0483 155.616 43.2001C158.687 41.3519 160.421 39.3615 161.672 35.0965C162.923 30.7745 161.985 24.1495 161.189 22.4719ZM153.455 37.4849C150.924 41.2097 142.877 40.1861 142.877 40.1861V19.1451C142.877 19.1451 147.142 19.003 149.787 19.5432C152.431 20.1119 155.132 22.9837 155.53 26.6801C155.928 30.3765 155.985 33.7601 153.455 37.4849Z" fill="white" stroke="white" stroke-width="1.3416" stroke-miterlimit="10"/>
</g>
<defs>
<radialGradient id="paint0_radial_410_43" cx="0" cy="0" r="1" gradientUnits="userSpaceOnUse" gradientTransform="translate(17.1319 29.688) scale(2.99836)">
<stop stop-color="#D4AA00"/>
<stop offset="1" stop-color="#D4AA00" stop-opacity="0"/>
</radialGradient>
<clipPath id="clip0_410_43">
<rect width="160.992" height="31.4193" fill="white" transform="translate(1.50415 14)"/>
</clipPath>
</defs>
</svg>
