<svg width="167" height="30" viewBox="0 0 167 30" fill="none" xmlns="http://www.w3.org/2000/svg">
<g clip-path="url(#clip0_25_222)">
<path fill-rule="evenodd" clip-rule="evenodd" d="M14.4368 19.6655L19.555 18.7631C21.321 18.3886 21.7779 20.0324 21.2378 20.7894L15.3372 29.0612C15.0454 29.4764 14.4679 29.5789 14.0521 29.2878L1.59248 20.5634C1.17676 20.2724 1.07484 19.6942 1.36588 19.2785L10.0903 6.8188C10.3813 6.40308 10.9596 6.30115 11.3753 6.5922L20.6275 13.0698L19.2241 15.074L11.9774 10.0068C11.5615 9.71605 10.9834 9.81772 10.6923 10.2334L4.78051 18.6766C4.48948 19.0922 4.59139 19.6704 5.00711 19.9615L13.4502 25.8734C13.866 26.1646 14.4441 26.0626 14.7352 25.6469L17.5664 21.6035L14.8627 22.0802L13.7088 22.2836C13.209 22.3718 12.728 22.035 12.6399 21.5352L12.5347 20.938C12.4466 20.4383 12.7834 19.9573 13.2831 19.8692L14.4368 19.6655ZM20.1838 15.7462C20.5995 16.0372 21.1777 15.9353 21.4689 15.5195L21.8167 15.0228C22.1078 14.6072 22.007 14.027 21.5901 13.7378L20.6275 13.0698L19.2241 15.074L20.1838 15.7462ZM10.388 15.7002C10.388 16.0136 10.6445 16.2701 10.9579 16.2701H12.4987V17.811C12.4987 18.1244 12.7551 18.3809 13.0686 18.3809H13.5873C13.9008 18.3809 14.1572 18.1244 14.1572 17.811V16.2701H15.6982C16.0117 16.2701 16.2681 16.0136 16.2681 15.7002V15.1816C16.2681 14.8681 16.0117 14.6117 15.6982 14.6117H14.1571V13.0708C14.1571 12.7573 13.9006 12.5009 13.5872 12.5009H13.0684C12.755 12.5009 12.4986 12.7573 12.4986 13.0708V14.6116H10.9579C10.6445 14.6116 10.388 14.868 10.388 15.1814V15.7002Z" fill="black"/>
<path d="M20.6275 13.0698L11.3753 6.5922C10.9596 6.30115 10.3813 6.40308 10.0903 6.8188L1.36588 19.2785C1.07484 19.6942 1.17676 20.2724 1.59248 20.5634L14.0521 29.2878C14.4679 29.5789 15.0454 29.4764 15.3372 29.0612L21.2378 20.7894C21.7779 20.0324 21.321 18.3886 19.555 18.7631L14.4368 19.6655L13.2831 19.8692C12.7834 19.9573 12.4466 20.4383 12.5347 20.938L12.6399 21.5352C12.728 22.035 13.209 22.3718 13.7088 22.2836L14.8627 22.0802L17.5664 21.6035L14.7352 25.6469C14.4441 26.0626 13.866 26.1646 13.4502 25.8734L5.00711 19.9615C4.59139 19.6704 4.48948 19.0922 4.78051 18.6766L10.6923 10.2334C10.9834 9.81772 11.5615 9.71605 11.9774 10.0068L19.2241 15.074M20.6275 13.0698L19.2241 15.074M20.6275 13.0698L21.5901 13.7378C22.007 14.027 22.1078 14.6072 21.8167 15.0228L21.4689 15.5195C21.1777 15.9353 20.5995 16.0372 20.1838 15.7462L19.2241 15.074M10.388 15.7002C10.388 16.0136 10.6445 16.2701 10.9579 16.2701H12.4987V17.811C12.4987 18.1244 12.7551 18.3809 13.0686 18.3809H13.5873C13.9008 18.3809 14.1572 18.1244 14.1572 17.811V16.2701H15.6982C16.0117 16.2701 16.2681 16.0136 16.2681 15.7002V15.1816C16.2681 14.8681 16.0117 14.6117 15.6982 14.6117H14.1571V13.0708C14.1571 12.7573 13.9006 12.5009 13.5872 12.5009H13.0684C12.755 12.5009 12.4986 12.7573 12.4986 13.0708V14.6116H10.9579C10.6445 14.6116 10.388 14.868 10.388 15.1814V15.7002Z" stroke="black" stroke-width="0.0745553" stroke-miterlimit="22.9256"/>
<path fill-rule="evenodd" clip-rule="evenodd" d="M28.2031 9.39843C28.4294 8.94537 28.9802 8.76151 29.4332 8.98785C29.8863 9.21419 30.0702 9.76496 29.8438 10.218C29.6175 10.6711 29.0667 10.855 28.6136 10.6286C28.1605 10.4023 27.9768 9.85151 28.2031 9.39843Z" fill="#FFED00"/>
<path fill-rule="evenodd" clip-rule="evenodd" d="M31.4177 11.0043C31.644 10.5512 32.1948 10.3674 32.6479 10.5937C33.1009 10.82 33.2847 11.3708 33.0584 11.8239C32.8321 12.2769 32.2813 12.4608 31.8283 12.2344C31.3752 12.0081 31.1913 11.4573 31.4177 11.0043Z" fill="#00963F"/>
<path fill-rule="evenodd" clip-rule="evenodd" d="M29.4179 13.0389C28.9648 12.8126 28.7809 12.2618 29.0073 11.8087C29.2336 11.3556 29.7844 11.1718 30.2375 11.3981C30.6905 11.6245 30.8745 12.1752 30.648 12.6284C30.4217 13.0814 29.8709 13.2652 29.4179 13.0389Z" fill="#009EE3"/>
<path fill-rule="evenodd" clip-rule="evenodd" d="M31.0237 9.82417C30.5707 9.59784 30.3869 9.04706 30.6132 8.59399C30.8395 8.14093 31.3903 7.95707 31.8433 8.18341C32.2965 8.40974 32.4803 8.96052 32.254 9.41359C32.0277 9.86678 31.4769 10.0505 31.0237 9.82417Z" fill="#E3000F"/>
<path fill-rule="evenodd" clip-rule="evenodd" d="M23.2656 13.2071L23.9376 12.2474L21.9334 10.844L21.2573 11.801C20.9644 12.2154 21.0683 12.7949 21.4839 13.0859L21.9805 13.4337C22.3962 13.7248 22.9745 13.6228 23.2656 13.2071ZM30.0065 14.9246L31.1604 14.7212C31.66 14.633 32.1411 14.9698 32.2293 15.4696L32.3346 16.0668C32.4227 16.5665 32.0859 17.0475 31.5861 17.1356L30.4323 17.3391L27.7284 17.8158L31.7718 20.647C32.1875 20.9381 32.7658 20.8361 33.0568 20.4204L38.9688 11.9773C39.2598 11.5616 39.1579 10.9835 38.7421 10.6923L30.2992 4.7805C29.8834 4.48933 29.3056 4.59151 29.0141 5.0071L23.9376 12.2474L21.9334 10.844L28.4122 1.59261C28.7032 1.17689 29.2815 1.07496 29.6971 1.366L42.1569 10.0904C42.5725 10.3814 42.6744 10.9597 42.3834 11.3754L33.6591 23.835C33.3679 24.2507 32.7903 24.352 32.374 24.0616L24.0001 18.3069C23.2338 17.7802 23.101 16.0793 24.8884 15.8272L30.0065 14.9246Z" fill="black"/>
<path d="M23.9376 12.2474L23.2656 13.2071C22.9745 13.6228 22.3962 13.7248 21.9805 13.4337L21.4839 13.0859C21.0683 12.7949 20.9644 12.2154 21.2573 11.801L21.9334 10.844M23.9376 12.2474L21.9334 10.844M23.9376 12.2474L29.0141 5.0071C29.3056 4.59151 29.8834 4.48933 30.2992 4.7805L38.7421 10.6923C39.1579 10.9835 39.2598 11.5616 38.9688 11.9773L33.0568 20.4204C32.7658 20.8361 32.1875 20.9381 31.7718 20.647L27.7284 17.8158L30.4323 17.3391L31.5861 17.1356C32.0859 17.0475 32.4227 16.5665 32.3346 16.0668L32.2293 15.4696C32.1411 14.9698 31.66 14.633 31.1604 14.7212L30.0065 14.9246L24.8884 15.8272C23.101 16.0793 23.2338 17.7802 24.0001 18.3069L32.374 24.0616C32.7903 24.352 33.3679 24.2507 33.6591 23.835L42.3834 11.3754C42.6744 10.9597 42.5725 10.3814 42.1569 10.0904L29.6971 1.366C29.2815 1.07496 28.7032 1.17689 28.4122 1.59261L21.9334 10.844" stroke="black" stroke-width="0.0745553" stroke-miterlimit="22.9256"/>
<path fill-rule="evenodd" clip-rule="evenodd" d="M55.7942 22.8506C54.6188 22.8506 53.5866 22.6155 52.6977 22.1453C51.8088 21.675 51.1183 21.0141 50.6263 20.162C50.1339 19.3098 49.8879 18.3255 49.8879 17.2089V12.691C49.8879 11.5744 50.1339 10.5938 50.6263 9.7487C51.1183 8.90394 51.809 8.24659 52.6977 7.77636C53.5866 7.30641 54.6188 7.07117 55.7942 7.07117C56.955 7.07117 57.9834 7.29537 58.8797 7.74353C59.7759 8.19167 60.4701 8.80486 60.9625 9.58367C61.4545 10.3622 61.7007 11.222 61.7007 12.1622C61.7007 12.4118 61.5686 12.5367 61.3041 12.5367H58.4393C58.1748 12.5367 58.0425 12.4925 58.0425 12.4044V12.2722C58.0425 11.6993 57.8405 11.2106 57.4364 10.8066C57.0325 10.4027 56.4849 10.2005 55.7945 10.2005C55.1187 10.2005 54.5749 10.4208 54.1635 10.8618C53.7522 11.3026 53.5464 11.8756 53.5464 12.5808V17.319C53.5464 18.0243 53.774 18.5973 54.2295 19.038C54.6851 19.4788 55.2581 19.6994 55.9485 19.6994C56.5949 19.6994 57.1166 19.5267 57.5132 19.1816C57.9098 18.8362 58.1083 18.3552 58.1083 17.7381V17.1651C58.1083 17.0622 58.0567 17.0108 57.954 17.0108H55.9265C55.809 17.0108 55.7132 16.9743 55.6399 16.9006C55.5663 16.8273 55.5299 16.7316 55.5299 16.6142V14.4544C55.5299 14.3369 55.5666 14.2412 55.6399 14.1678C55.7132 14.0943 55.809 14.0578 55.9265 14.0578H61.3039C61.4214 14.0578 61.5168 14.0945 61.5903 14.1678C61.6637 14.2412 61.7005 14.3369 61.7005 14.4544V17.3193C61.7005 18.4211 61.4545 19.3911 60.9621 20.2284C60.4701 21.0658 59.7794 21.7125 58.8905 22.1676C58.0019 22.6229 56.9696 22.8506 55.7942 22.8506ZM68.1356 11.1042C69.1052 11.1042 69.9867 11.2695 70.7803 11.5999C71.5735 11.9305 72.1981 12.3861 72.6536 12.9664C73.109 13.5467 73.3367 14.1894 73.3367 14.8946V22.2776C73.3367 22.395 73.3002 22.4904 73.2266 22.564C73.1533 22.6373 73.0575 22.6742 72.9401 22.6742H70.0751C69.9576 22.6742 69.8619 22.6373 69.7886 22.564C69.7151 22.4904 69.6785 22.395 69.6785 22.2776V21.8367C69.6785 21.7634 69.6601 21.7192 69.6233 21.7046C69.5865 21.6898 69.5463 21.7119 69.5022 21.7708C68.9144 22.4907 67.9665 22.8506 66.6593 22.8506C65.4985 22.8506 64.5728 22.575 63.8823 22.0241C63.1919 21.4732 62.8465 20.6616 62.8465 19.589C62.8465 18.4577 63.2394 17.5834 64.0256 16.9664C64.8115 16.3492 65.9467 16.0406 67.4304 16.0406H69.5239C69.6267 16.0406 69.6782 15.9891 69.6782 15.8862V15.5117C69.6782 15.1151 69.5497 14.8029 69.2927 14.575C69.0356 14.3474 68.6718 14.2336 68.2019 14.2336C67.8638 14.2336 67.5737 14.2884 67.3314 14.3988C67.089 14.509 66.9163 14.6596 66.8136 14.8508C66.7403 14.9535 66.6703 15.0308 66.6041 15.0822C66.5381 15.1335 66.4535 15.152 66.3506 15.1372L63.3974 14.7627C63.1329 14.7333 63.0152 14.6304 63.045 14.454C63.1183 13.8222 63.3827 13.253 63.8382 12.7462C64.2937 12.2394 64.8924 11.8388 65.6345 11.545C66.3762 11.2511 67.2102 11.1042 68.1356 11.1042ZM67.7611 20.2282C68.3193 20.2282 68.7786 20.0849 69.1383 19.7984C69.4985 19.5119 69.6782 19.1337 69.6782 18.6635V18.1785C69.6782 18.0758 69.6267 18.0243 69.5239 18.0243H68.2458C67.6874 18.0243 67.2577 18.1197 66.9565 18.3107C66.6553 18.5019 66.5047 18.7883 66.5047 19.1703C66.5047 19.4936 66.6147 19.7506 66.8353 19.9414C67.0559 20.1324 67.3641 20.2282 67.7611 20.2282ZM88.2344 11.1042C89.3804 11.1042 90.2767 11.4569 90.923 12.1622C91.5693 12.8673 91.8926 13.859 91.8926 15.1372V22.2776C91.8926 22.395 91.8559 22.4904 91.7825 22.564C91.7091 22.6373 91.6135 22.6742 91.496 22.6742H88.6531C88.5356 22.6742 88.4402 22.6373 88.3667 22.564C88.2933 22.4904 88.2565 22.395 88.2565 22.2776V15.9304C88.2565 15.4307 88.128 15.0231 87.8709 14.7071C87.6139 14.3913 87.2723 14.2332 86.8461 14.2332C86.42 14.2332 86.0711 14.3876 85.7993 14.6961C85.5275 15.0047 85.3916 15.4161 85.3916 15.9302V22.2772C85.3916 22.3947 85.3548 22.4901 85.2815 22.5638C85.2079 22.6371 85.1125 22.6738 84.9949 22.6738H82.13C82.0125 22.6738 81.9171 22.6371 81.8435 22.5638C81.7701 22.4901 81.7334 22.3947 81.7334 22.2772V15.9302C81.7334 15.4305 81.5975 15.0228 81.3258 14.7069C81.054 14.3909 80.7049 14.233 80.2788 14.233C79.8822 14.233 79.5516 14.3578 79.2871 14.6075C79.0227 14.8572 78.8611 15.1878 78.8022 15.5992V22.277C78.8022 22.3944 78.7653 22.4898 78.692 22.5634C78.6185 22.6367 78.5231 22.6736 78.4056 22.6736H75.5406C75.4231 22.6736 75.3275 22.6367 75.2541 22.5634C75.1808 22.4898 75.144 22.3944 75.144 22.277V11.6772C75.144 11.5597 75.1808 11.464 75.2541 11.3907C75.3277 11.3174 75.4231 11.2806 75.5406 11.2806H78.4056C78.5231 11.2806 78.6185 11.3174 78.692 11.3907C78.7653 11.464 78.8022 11.5597 78.8022 11.6772V12.4486C78.8022 12.5219 78.8205 12.5625 78.8574 12.5698C78.8942 12.5771 78.9344 12.5514 78.9786 12.4928C79.5662 11.5673 80.492 11.1045 81.7555 11.1045C82.4754 11.1045 83.1107 11.2624 83.6618 11.5784C84.2127 11.8943 84.6425 12.3534 84.9511 12.9556C84.9805 13.0145 85.0134 13.0403 85.0501 13.0329C85.0869 13.0256 85.1201 12.9924 85.1492 12.9339C85.7661 11.714 86.7947 11.1042 88.2344 11.1042ZM99.3857 19.7432C99.8412 19.7432 100.264 19.6733 100.653 19.5338C101.042 19.3942 101.369 19.2068 101.633 18.9718C101.722 18.869 101.817 18.8175 101.92 18.8175C102.008 18.8175 102.096 18.8687 102.184 18.9718L103.551 20.6024C103.639 20.7052 103.683 20.8008 103.683 20.8889C103.683 20.9916 103.639 21.0874 103.551 21.1754C103.051 21.7042 102.42 22.1159 101.656 22.4094C100.892 22.7033 100.076 22.8502 99.2093 22.8502C98.2103 22.8502 97.325 22.6702 96.5535 22.3103C95.7824 21.9502 95.1469 21.4472 94.6472 20.8008C93.8393 19.7723 93.4352 18.4648 93.4352 16.8779C93.4352 16.1728 93.516 15.5115 93.6776 14.8946C94.0009 13.7486 94.6325 12.8266 95.5729 12.1287C96.5131 11.4309 97.6152 11.0818 98.8787 11.0818C100.348 11.0818 101.534 11.5373 102.438 12.448C103.341 13.359 103.933 14.6298 104.212 16.2605C104.271 16.6719 104.315 17.1201 104.344 17.605C104.344 17.8694 104.212 18.0016 103.948 18.0016H97.2919C97.2477 18.0016 97.2075 18.0164 97.1707 18.0458C97.134 18.0752 97.1229 18.1191 97.1376 18.178L97.2698 18.6188C97.4167 18.9714 97.6739 19.247 98.0413 19.4451C98.4087 19.6442 98.8568 19.7432 99.3857 19.7432ZM98.8127 14.2336C98.0634 14.2336 97.5566 14.5934 97.2919 15.3132C97.233 15.4602 97.1965 15.5704 97.1817 15.644V15.6881C97.1817 15.7762 97.2333 15.8204 97.3361 15.8204H100.355C100.414 15.8204 100.454 15.8019 100.476 15.7652C100.499 15.7283 100.502 15.6881 100.487 15.644L100.399 15.3574C100.282 15.0047 100.091 14.7296 99.8264 14.5311C99.5621 14.3326 99.224 14.2336 98.8127 14.2336ZM111.639 22.8506C110.464 22.8506 109.431 22.6155 108.542 22.1453C107.654 21.675 106.963 21.0141 106.471 20.162C105.979 19.3098 105.733 18.3255 105.733 17.2089V12.691C105.733 11.5744 105.979 10.5938 106.471 9.7487C106.963 8.90394 107.654 8.24659 108.542 7.77636C109.431 7.30641 110.464 7.07117 111.639 7.07117C112.8 7.07117 113.828 7.29537 114.725 7.74353C115.621 8.19167 116.315 8.80486 116.807 9.58367C117.299 10.3622 117.545 11.222 117.545 12.1622C117.545 12.4118 117.413 12.5367 117.149 12.5367H114.284C114.019 12.5367 113.887 12.4925 113.887 12.4044V12.2722C113.887 11.6993 113.685 11.2106 113.281 10.8066C112.877 10.4027 112.33 10.2005 111.639 10.2005C110.963 10.2005 110.42 10.4208 110.008 10.8618C109.597 11.3026 109.391 11.8756 109.391 12.5808V17.319C109.391 18.0243 109.619 18.5973 110.074 19.038C110.53 19.4788 111.103 19.6994 111.793 19.6994C112.439 19.6994 112.961 19.5267 113.358 19.1816C113.754 18.8362 113.953 18.3552 113.953 17.7381V17.1651C113.953 17.0622 113.901 17.0108 113.798 17.0108H111.771C111.653 17.0108 111.558 16.9743 111.484 16.9006C111.411 16.8273 111.374 16.7316 111.374 16.6142V14.4544C111.374 14.3369 111.411 14.2412 111.484 14.1678C111.558 14.0943 111.653 14.0578 111.771 14.0578H117.148C117.266 14.0578 117.361 14.0945 117.435 14.1678C117.508 14.2412 117.545 14.3369 117.545 14.4544V17.3193C117.545 18.4211 117.299 19.3911 116.807 20.2284C116.315 21.0658 115.624 21.7125 114.735 22.1676C113.847 22.6229 112.814 22.8506 111.639 22.8506ZM124.399 22.8506C123.077 22.8506 121.956 22.498 121.038 21.7925C120.12 21.0874 119.499 20.1324 119.176 18.9276C119 18.3251 118.912 17.6642 118.912 16.9443C118.912 16.2096 119.007 15.4971 119.198 14.8066C119.536 13.6458 120.164 12.7385 121.082 12.0849C122 11.4309 123.114 11.1042 124.421 11.1042C125.714 11.1042 126.809 11.4312 127.705 12.0849C128.602 12.7385 129.226 13.6385 129.578 14.7845C129.784 15.4455 129.887 16.1507 129.887 16.9C129.887 17.5758 129.806 18.2224 129.644 18.8396C129.336 20.0736 128.719 21.0508 127.793 21.7708C126.868 22.4907 125.736 22.8506 124.399 22.8506ZM124.399 19.7211C124.825 19.7211 125.182 19.5852 125.468 19.3134C125.755 19.0416 125.957 18.6706 126.074 18.2006C126.162 17.8187 126.206 17.4 126.206 16.9445C126.206 16.5038 126.155 16.0776 126.052 15.6663C125.935 15.2108 125.736 14.8583 125.458 14.6084C125.178 14.3586 124.825 14.2338 124.399 14.2338C123.959 14.2338 123.602 14.3586 123.33 14.6084C123.059 14.8581 122.864 15.2108 122.747 15.6663C122.644 15.9896 122.592 16.4157 122.592 16.9445C122.592 17.4 122.636 17.8187 122.724 18.2006C122.856 18.6708 123.062 19.0416 123.342 19.3134C123.62 19.5852 123.973 19.7211 124.399 19.7211ZM136.697 22.8506C135.374 22.8506 134.254 22.498 133.336 21.7925C132.418 21.0874 131.797 20.1324 131.473 18.9276C131.297 18.3251 131.209 17.6642 131.209 16.9443C131.209 16.2096 131.304 15.4971 131.496 14.8066C131.833 13.6458 132.462 12.7385 133.38 12.0849C134.298 11.4309 135.412 11.1042 136.718 11.1042C138.012 11.1042 139.106 11.4312 140.003 12.0849C140.899 12.7385 141.523 13.6385 141.876 14.7845C142.081 15.4455 142.184 16.1507 142.184 16.9C142.184 17.5758 142.103 18.2224 141.942 18.8396C141.634 20.0736 141.017 21.0508 140.09 21.7708C139.165 22.4907 138.034 22.8506 136.697 22.8506ZM136.697 19.7211C137.123 19.7211 137.479 19.5852 137.765 19.3134C138.052 19.0416 138.253 18.6706 138.372 18.2006C138.46 17.8187 138.504 17.4 138.504 16.9445C138.504 16.5038 138.452 16.0776 138.349 15.6663C138.232 15.2108 138.034 14.8583 137.754 14.6084C137.476 14.3586 137.123 14.2338 136.697 14.2338C136.255 14.2338 135.9 14.3586 135.628 14.6084C135.355 14.8581 135.161 15.2108 135.043 15.6663C134.94 15.9896 134.89 16.4157 134.89 16.9445C134.89 17.4 134.933 17.8187 135.022 18.2006C135.154 18.6708 135.359 19.0416 135.638 19.3134C135.918 19.5852 136.271 19.7211 136.697 19.7211ZM150.602 7.64415C150.602 7.52667 150.64 7.43099 150.713 7.35767C150.786 7.28406 150.882 7.24725 151 7.24725H153.864C153.982 7.24725 154.078 7.28406 154.151 7.35767C154.224 7.43099 154.261 7.52667 154.261 7.64415V22.2776C154.261 22.395 154.224 22.4904 154.151 22.564C154.078 22.6373 153.982 22.6742 153.864 22.6742H151C150.882 22.6742 150.786 22.6373 150.713 22.564C150.64 22.4904 150.602 22.395 150.602 22.2776V21.7487C150.602 21.675 150.584 21.6312 150.547 21.6165C150.511 21.6017 150.47 21.6238 150.426 21.6827C149.868 22.4613 149.03 22.8508 147.914 22.8508C146.959 22.8508 146.077 22.5348 145.27 21.9033C144.462 21.2717 143.91 20.4561 143.616 19.457C143.382 18.7371 143.263 17.8923 143.263 16.9227C143.263 15.8795 143.418 14.9541 143.726 14.1458C144.065 13.2348 144.612 12.4965 145.368 11.9308C146.125 11.3652 146.974 11.0824 147.914 11.0824C149.03 11.0824 149.868 11.4204 150.426 12.0962C150.47 12.1547 150.51 12.1768 150.547 12.1622C150.584 12.1474 150.602 12.1035 150.602 12.0299V7.64415ZM150.206 18.7954C150.456 18.3251 150.581 17.7231 150.581 16.9884C150.581 16.1805 150.448 15.5338 150.184 15.0491C149.875 14.5494 149.449 14.2998 148.906 14.2998C148.332 14.2998 147.892 14.5569 147.583 15.0712C147.319 15.5562 147.186 16.1951 147.186 16.9887C147.186 17.7381 147.312 18.3476 147.562 18.8177C147.87 19.3613 148.318 19.6331 148.906 19.6331C149.464 19.6331 149.897 19.354 150.206 18.7954ZM161.004 22.8506C159.961 22.8506 159.054 22.7073 158.282 22.4207C157.512 22.1343 156.917 21.7302 156.498 21.2085C156.079 20.6871 155.869 20.0883 155.869 19.4123V19.3022C155.869 19.1847 155.906 19.0893 155.98 19.0156C156.053 18.9423 156.149 18.9056 156.266 18.9056H158.977C159.241 18.9056 159.373 18.9497 159.373 19.0377V19.1699C159.373 19.449 159.524 19.6804 159.826 19.8641C160.127 20.0478 160.512 20.1395 160.982 20.1395C161.394 20.1395 161.724 20.0697 161.974 19.93C162.224 19.7904 162.348 19.6031 162.348 19.3682C162.348 19.1331 162.216 18.9604 161.952 18.8504C161.688 18.74 161.268 18.6335 160.696 18.5307C159.77 18.3543 159.02 18.1414 158.448 17.8918C157.714 17.5832 157.122 17.1939 156.673 16.7237C156.226 16.2534 156.001 15.6219 156.001 14.8283C156.001 13.6823 156.446 12.775 157.336 12.1066C158.224 11.4382 159.396 11.1039 160.85 11.1039C161.834 11.1039 162.697 11.2619 163.44 11.5778C164.182 11.8937 164.758 12.3382 165.169 12.9112C165.581 13.4842 165.787 14.1453 165.787 14.8946C165.787 14.9682 165.75 15.0305 165.677 15.082C165.604 15.1332 165.508 15.159 165.39 15.159H162.768C162.503 15.159 162.371 15.1149 162.371 15.0268V14.8946C162.371 14.6154 162.239 14.3878 161.974 14.2115C161.71 14.0351 161.35 13.947 160.895 13.947C160.483 13.947 160.148 14.017 159.892 14.1566C159.635 14.2961 159.506 14.4909 159.506 14.7406C159.506 14.9903 159.646 15.1703 159.925 15.2805C160.204 15.3905 160.674 15.5117 161.335 15.6442C162.232 15.8206 162.834 15.9602 163.142 16.0629C164.039 16.3568 164.74 16.7534 165.247 17.253C165.754 17.7525 166.007 18.4211 166.007 19.2586C166.007 20.4045 165.556 21.2898 164.652 21.914C163.748 22.5382 162.533 22.8506 161.004 22.8506Z" fill="black"/>
</g>
<defs>
<clipPath id="clip0_25_222">
<rect width="166.8" height="30" fill="white"/>
</clipPath>
</defs>
</svg>
