<svg width="196" height="48" viewBox="0 0 196 48" fill="none" xmlns="http://www.w3.org/2000/svg">
<path d="M23.1559 45.024V27.3422C23.1559 24.7296 22.5289 22.7545 21.2749 21.4169C20.0417 20.0584 18.3697 19.3791 16.2587 19.3791C14.5866 19.3791 13.1236 19.8389 11.8696 20.7585C10.6365 21.6573 9.67501 22.9845 8.98529 24.7401C8.31647 26.4749 7.98205 28.5963 7.98205 31.1044H5.8502C5.8502 27.4049 6.32046 24.2908 7.26099 21.7618C8.22243 19.2328 9.59142 17.3204 11.368 16.0246C13.1445 14.7078 15.2764 14.0494 17.7636 14.0494C20.188 14.0494 22.2363 14.5929 23.9083 15.6797C25.6013 16.7665 26.8867 18.3132 27.7645 20.3196C28.6423 22.3052 29.0812 24.6461 29.0812 27.3422V45.024H23.1559ZM2.02539 45.024V14.8646H7.19828L7.98205 21.3856V45.024H2.02539Z" fill="white"/>
<path d="M40.4178 8.43751C39.2267 8.43751 38.2859 8.11354 37.5965 7.46564C36.9275 6.79683 36.5933 5.8981 36.5933 4.76945C36.5933 3.68263 36.9275 2.8257 37.5965 2.19869C38.2859 1.55077 39.2267 1.22681 40.4178 1.22681C41.5883 1.22681 42.5079 1.55077 43.1768 2.19869C43.8666 2.8257 44.2115 3.68263 44.2115 4.76945C44.2115 5.8981 43.8666 6.79683 43.1768 7.46564C42.5079 8.11354 41.5883 8.43751 40.4178 8.43751ZM37.4394 45.0239V14.7704H43.3962V45.0239H37.4394Z" fill="white"/>
<path d="M52.9927 45.0239V2.16736H58.9495V45.0239H52.9927ZM58.103 27.1227L72.4303 14.8645H80.6129L58.103 33.3615V27.1227ZM74.0606 45.0239L60.0782 25.9L65.9095 24.6773L81.3339 45.0239H74.0606Z" fill="white"/>
<path d="M104.515 45.024L103.762 38.0956V25.5239C103.762 23.0576 103.25 21.2706 102.226 20.1629C101.202 19.0342 99.5822 18.4699 97.3667 18.4699C96.1125 18.4699 94.9944 18.658 94.0122 19.0342C93.0508 19.3895 92.2879 19.933 91.7236 20.6645C91.1802 21.396 90.9083 22.3156 90.9083 23.4234H84.3247C84.3247 21.2079 84.8682 19.4105 85.955 18.031C87.0419 16.6516 88.557 15.6484 90.501 15.0213C92.4655 14.3734 94.7541 14.0494 97.3667 14.0494C99.8119 14.0494 101.965 14.457 103.825 15.2721C105.685 16.0664 107.127 17.3204 108.151 19.0342C109.196 20.7481 109.719 22.9636 109.719 25.6806V45.024H104.515ZM94.4198 45.8393C91.8906 45.8393 89.7902 45.4005 88.1181 44.5224C86.446 43.6238 85.1922 42.4533 84.3559 41.0112C83.541 39.5692 83.1333 38.0328 83.1333 36.4025C83.1333 34.417 83.6349 32.7869 84.6381 31.5119C85.6622 30.2161 87.0731 29.2546 88.8707 28.6276C90.6679 28.0006 92.7371 27.6871 95.0781 27.6871C96.6875 27.6871 98.255 27.8334 99.7807 28.126C101.306 28.4186 102.811 28.8053 104.295 29.286V32.8914C103.083 32.4524 101.735 32.1076 100.251 31.8568C98.7878 31.5851 97.4188 31.4492 96.144 31.4492C94.2419 31.4492 92.6534 31.8254 91.3787 32.5778C90.1036 33.3302 89.4662 34.6053 89.4662 36.4025C89.4662 37.7194 89.9678 38.8584 90.971 39.8198C91.9742 40.7606 93.5627 41.2306 95.7364 41.2306C97.3248 41.2306 98.7251 40.8754 99.9374 40.1647C101.15 39.4334 102.09 38.5241 102.759 37.4373C103.428 36.3504 103.762 35.2636 103.762 34.1767H105.204C105.204 36.2668 104.776 38.2001 103.919 39.9768C103.083 41.7322 101.86 43.1534 100.251 44.2402C98.6414 45.3062 96.6978 45.8393 94.4198 45.8393Z" fill="white"/>
<path d="M117.615 45.0239V2.16736H123.572V45.0239H117.615Z" fill="white"/>
<path d="M151.257 45.024L150.505 38.0956V25.5239C150.505 23.0576 149.993 21.2706 148.969 20.1629C147.945 19.0342 146.325 18.4699 144.109 18.4699C142.855 18.4699 141.737 18.658 140.754 19.0342C139.793 19.3895 139.03 19.933 138.466 20.6645C137.922 21.396 137.651 22.3156 137.651 23.4234H131.067C131.067 21.2079 131.61 19.4105 132.697 18.031C133.784 16.6516 135.3 15.6484 137.243 15.0213C139.208 14.3734 141.496 14.0494 144.109 14.0494C146.555 14.0494 148.707 14.457 150.567 15.2721C152.428 16.0664 153.87 17.3204 154.894 19.0342C155.939 20.7481 156.461 22.9636 156.461 25.6806V45.024H151.257ZM141.162 45.8393C138.633 45.8393 136.533 45.4005 134.861 44.5224C133.189 43.6238 131.934 42.4533 131.099 41.0112C130.283 39.5692 129.876 38.0328 129.876 36.4025C129.876 34.417 130.378 32.7869 131.381 31.5119C132.405 30.2161 133.816 29.2546 135.613 28.6276C137.411 28.0006 139.48 27.6871 141.82 27.6871C143.43 27.6871 144.997 27.8334 146.523 28.126C148.049 28.4186 149.554 28.8053 151.038 29.286V32.8914C149.825 32.4524 148.477 32.1076 146.993 31.8568C145.53 31.5851 144.161 31.4492 142.886 31.4492C140.985 31.4492 139.396 31.8254 138.121 32.5778C136.846 33.3302 136.209 34.6053 136.209 36.4025C136.209 37.7194 136.71 38.8584 137.714 39.8198C138.717 40.7606 140.305 41.2306 142.479 41.2306C144.068 41.2306 145.468 40.8754 146.68 40.1647C147.892 39.4334 148.833 38.5241 149.501 37.4373C150.17 36.3504 150.505 35.2636 150.505 34.1767H151.947C151.947 36.2668 151.518 38.2001 150.662 39.9768C149.825 41.7322 148.603 43.1534 146.993 44.2402C145.384 45.3062 143.44 45.8393 141.162 45.8393Z" fill="white"/>
<path d="M178.873 45.8392C176.909 45.8392 175.122 45.3167 173.513 44.2717C171.924 43.2057 170.649 41.6382 169.688 39.5691C168.747 37.4999 168.277 34.9604 168.277 31.9507H170.315C170.315 33.7064 170.691 35.2216 171.443 36.4967C172.217 37.7715 173.199 38.7537 174.39 39.4436C175.582 40.1125 176.825 40.4468 178.121 40.4468C179.668 40.4468 181.057 40.0182 182.291 39.1614C183.545 38.3046 184.537 37.082 185.269 35.4935C186.021 33.884 186.397 31.9925 186.397 29.8189C186.397 27.6661 186.032 25.8164 185.3 24.2698C184.569 22.7022 183.576 21.5004 182.322 20.6644C181.068 19.8075 179.647 19.379 178.058 19.379C176.721 19.379 175.456 19.703 174.265 20.3509C173.094 20.9988 172.144 21.9602 171.412 23.2352C170.68 24.4892 170.315 26.0254 170.315 27.8438H168.277C168.277 24.8968 168.737 22.3992 169.656 20.3509C170.576 18.3026 171.851 16.7455 173.481 15.6796C175.132 14.5928 177.066 14.0494 179.281 14.0494C181.685 14.0494 183.879 14.6973 185.865 15.9931C187.871 17.2681 189.47 19.0864 190.661 21.4482C191.874 23.8099 192.48 26.6002 192.48 29.8189C192.48 33.0584 191.863 35.8799 190.63 38.2837C189.397 40.6662 187.746 42.5265 185.676 43.864C183.628 45.1809 181.361 45.8392 178.873 45.8392ZM164.358 45.0239V2.16736H170.315V37.7821L168.402 45.0239H164.358Z" fill="white"/>
</svg>
