<svg width="83" height="21" viewBox="0 0 83 21" fill="none" xmlns="http://www.w3.org/2000/svg">
<path d="M10.5255 19.5501V12.1238C10.5255 11.0265 10.2621 10.1969 9.73541 9.63512C9.21749 9.06453 8.51523 8.77924 7.62864 8.77924C6.92636 8.77924 6.31188 8.97236 5.78519 9.35859C5.26728 9.73606 4.86348 10.2935 4.57379 11.0308C4.29289 11.7594 4.15243 12.6504 4.15243 13.7038H3.25705C3.25705 12.1501 3.45456 10.8421 3.84959 9.77995C4.25339 8.71778 4.82837 7.91457 5.57452 7.37033C6.32067 6.81729 7.21605 6.54077 8.26067 6.54077C9.27895 6.54077 10.1392 6.76901 10.8415 7.22548C11.5525 7.68194 12.0924 8.33154 12.4611 9.17426C12.8297 10.0082 13.0141 10.9914 13.0141 12.1238V19.5501H10.5255ZM1.65063 19.5501V6.88313H3.82325L4.15243 9.62194V19.5501H1.65063Z" fill="black"/>
<path d="M17.7758 4.18377C17.2755 4.18377 16.8804 4.0477 16.5908 3.77559C16.3098 3.49468 16.1694 3.11722 16.1694 2.64318C16.1694 2.18672 16.3098 1.82681 16.5908 1.56346C16.8804 1.29134 17.2755 1.15527 17.7758 1.15527C18.2674 1.15527 18.6536 1.29134 18.9345 1.56346C19.2242 1.82681 19.3691 2.18672 19.3691 2.64318C19.3691 3.11722 19.2242 3.49468 18.9345 3.77559C18.6536 4.0477 18.2674 4.18377 17.7758 4.18377ZM16.5248 19.5501V6.84358H19.0267V19.5501H16.5248Z" fill="black"/>
<path d="M23.0569 19.5501V1.55029H25.5587V19.5501H23.0569ZM25.2032 12.0315L31.2207 6.88309H34.6574L25.2032 14.6518V12.0315ZM31.9054 19.5501L26.0328 11.518L28.4819 11.0045L34.9602 19.5501H31.9054Z" fill="black"/>
<path d="M44.6962 19.5501L44.3803 16.6401V11.36C44.3803 10.3242 44.1651 9.57366 43.735 9.10842C43.3049 8.63439 42.6246 8.39738 41.6941 8.39738C41.1673 8.39738 40.6977 8.47638 40.2852 8.63439C39.8814 8.78361 39.561 9.01185 39.324 9.31909C39.0957 9.62633 38.9816 10.0126 38.9816 10.4778H36.2165C36.2165 9.54733 36.4447 8.7924 36.9012 8.21303C37.3577 7.63367 37.994 7.21231 38.8105 6.94897C39.6356 6.67684 40.5968 6.54077 41.6941 6.54077C42.7211 6.54077 43.6253 6.71194 44.4066 7.0543C45.1878 7.38788 45.7935 7.91457 46.2236 8.63439C46.6625 9.3542 46.882 10.2847 46.882 11.4259V19.5501H44.6962ZM40.4564 19.8925C39.3941 19.8925 38.512 19.7082 37.8097 19.3394C37.1074 18.962 36.5808 18.4704 36.2296 17.8647C35.8873 17.2591 35.7161 16.6138 35.7161 15.9291C35.7161 15.0952 35.9267 14.4105 36.3481 13.875C36.7782 13.3308 37.3708 12.927 38.1258 12.6636C38.8806 12.4003 39.7496 12.2686 40.7329 12.2686C41.4088 12.2686 42.0672 12.33 42.708 12.4529C43.3488 12.5758 43.9808 12.7382 44.604 12.9401V14.4544C44.095 14.27 43.5288 14.1252 42.9054 14.0198C42.291 13.9057 41.716 13.8487 41.1806 13.8487C40.3817 13.8487 39.7145 14.0067 39.1791 14.3227C38.6436 14.6387 38.3759 15.1742 38.3759 15.9291C38.3759 16.4822 38.5866 16.9605 39.0079 17.3643C39.4293 17.7595 40.0964 17.9569 41.0094 17.9569C41.6765 17.9569 42.2646 17.8077 42.7738 17.5092C43.283 17.202 43.678 16.8201 43.9589 16.3637C44.2397 15.9072 44.3803 15.4507 44.3803 14.9942H44.9859C44.9859 15.872 44.8059 16.6841 44.4461 17.4303C44.095 18.1675 43.5813 18.7644 42.9054 19.2209C42.2295 19.6686 41.4131 19.8925 40.4564 19.8925Z" fill="black"/>
<path d="M50.1982 19.5501V1.55029H52.7001V19.5501H50.1982Z" fill="black"/>
<path d="M64.328 19.5501L64.0119 16.6401V11.36C64.0119 10.3242 63.797 9.57366 63.3668 9.10842C62.9367 8.63439 62.2563 8.39738 61.3258 8.39738C60.7992 8.39738 60.3296 8.47638 59.9169 8.63439C59.5131 8.78361 59.1927 9.01185 58.9557 9.31909C58.7274 9.62633 58.6134 10.0126 58.6134 10.4778H55.8482C55.8482 9.54733 56.0764 8.7924 56.5329 8.21303C56.9894 7.63367 57.6258 7.21231 58.4422 6.94897C59.2673 6.67684 60.2285 6.54077 61.3258 6.54077C62.3529 6.54077 63.2571 6.71194 64.0383 7.0543C64.8196 7.38788 65.4253 7.91457 65.8554 8.63439C66.2943 9.3542 66.5138 10.2847 66.5138 11.4259V19.5501H64.328ZM60.0881 19.8925C59.0259 19.8925 58.1437 19.7082 57.4415 19.3394C56.7392 18.962 56.2125 18.4704 55.8614 17.8647C55.519 17.2591 55.3479 16.6138 55.3479 15.9291C55.3479 15.0952 55.5586 14.4105 55.9799 13.875C56.41 13.3308 57.0026 12.927 57.7574 12.6636C58.5124 12.4003 59.3815 12.2686 60.3646 12.2686C61.0405 12.2686 61.6989 12.33 62.3397 12.4529C62.9806 12.5758 63.6126 12.7382 64.2359 12.9401V14.4544C63.7267 14.27 63.1605 14.1252 62.5372 14.0198C61.9228 13.9057 61.3478 13.8487 60.8123 13.8487C60.0135 13.8487 59.3463 14.0067 58.8108 14.3227C58.2754 14.6387 58.0077 15.1742 58.0077 15.9291C58.0077 16.4822 58.2184 16.9605 58.6397 17.3643C59.0611 17.7595 59.7282 17.9569 60.6412 17.9569C61.3083 17.9569 61.8964 17.8077 62.4056 17.5092C62.9147 17.202 63.3097 16.8201 63.5906 16.3637C63.8715 15.9072 64.0119 15.4507 64.0119 14.9942H64.6178C64.6178 15.872 64.4378 16.6841 64.0779 17.4303C63.7267 18.1675 63.2132 18.7644 62.5372 19.2209C61.8613 19.6686 61.045 19.8925 60.0881 19.8925Z" fill="black"/>
<path d="M75.9266 19.8925C75.1015 19.8925 74.3508 19.673 73.675 19.2341C73.0079 18.7864 72.4723 18.128 72.0686 17.259C71.6736 16.39 71.476 15.3234 71.476 14.0593H72.3319C72.3319 14.7967 72.4899 15.4331 72.8058 15.9686C73.1307 16.504 73.5433 16.9166 74.0437 17.2063C74.5441 17.4872 75.0664 17.6276 75.6105 17.6276C76.2601 17.6276 76.8439 17.4476 77.3619 17.0878C77.8885 16.7279 78.3055 16.2144 78.6128 15.5473C78.9287 14.8713 79.0867 14.0769 79.0867 13.1639C79.0867 12.2598 78.9332 11.4829 78.6259 10.8333C78.3186 10.1749 77.9017 9.67018 77.375 9.31905C76.8484 8.95914 76.2513 8.77919 75.5842 8.77919C75.0224 8.77919 74.4914 8.91525 73.991 9.18738C73.4993 9.45951 73.1 9.8633 72.7927 10.3988C72.4854 10.9255 72.3319 11.5707 72.3319 12.3344H71.476C71.476 11.0966 71.6691 10.0476 72.0553 9.18738C72.4417 8.32711 72.9771 7.67313 73.6618 7.22543C74.3553 6.76897 75.1673 6.54073 76.0977 6.54073C77.1073 6.54073 78.029 6.81286 78.8629 7.35711C79.7056 7.89259 80.3772 8.65629 80.8775 9.64824C81.3867 10.6402 81.6412 11.8121 81.6412 13.1639C81.6412 14.5246 81.3822 15.7096 80.8644 16.7192C80.3464 17.7198 79.6529 18.5012 78.7839 19.0629C77.9236 19.616 76.9712 19.8925 75.9266 19.8925ZM69.8301 19.55V1.55029H72.3319V16.5085L71.5287 19.55H69.8301Z" fill="black"/>
</svg>
