<svg width="158" height="21" viewBox="0 0 158 21" fill="none" xmlns="http://www.w3.org/2000/svg">
<g clip-path="url(#clip0_25_238)">
<path d="M14.763 17.403L2.53339 1.95759H1.40601V19.6007H2.93861V4.93447L14.5552 19.6007H16.2956V1.95239H14.763V17.403Z" fill="black"/>
<path d="M124.876 10.0311C121.286 10.0155 119.468 8.91409 119.468 6.74767C119.468 5.62031 119.998 3.00191 124.913 3.00191C126.835 3.00191 128.264 3.47466 129.157 4.40981C130.248 5.54758 130.196 7.03342 130.191 7.04902L130.955 7.08538L131.719 7.12696C131.724 7.04382 131.817 4.99687 130.279 3.37076C129.084 2.10831 127.277 1.46411 124.908 1.46411C118.434 1.46411 117.93 5.50603 117.93 6.74251C117.93 8.52968 118.829 11.5325 124.866 11.5585C130.633 11.5845 130.7 15.2264 130.7 15.3822C130.7 17.5745 128.575 18.8319 124.871 18.8319C120.751 18.8319 118.569 17.185 118.569 14.0626H117.037C117.037 15.9589 117.8 20.3644 124.866 20.3644C131.698 20.3644 132.228 16.5512 132.228 15.3874C132.233 13.5431 130.695 10.0571 124.876 10.0311Z" fill="black"/>
<path d="M148.686 10.0311C145.096 10.0155 143.278 8.91409 143.278 6.74767C143.278 5.62031 143.808 3.00191 148.722 3.00191C150.645 3.00191 152.074 3.47466 152.967 4.40981C154.058 5.54758 154.006 7.03342 154.001 7.04902L154.765 7.08538L155.528 7.12696C155.534 7.04382 155.627 4.99687 154.089 3.37076C152.894 2.10831 151.086 1.46411 148.717 1.46411C142.244 1.46411 141.74 5.50603 141.74 6.74251C141.74 8.52968 142.639 11.5325 148.676 11.5585C154.448 11.5845 154.51 15.2264 154.51 15.3822C154.51 17.5745 152.385 18.8319 148.676 18.8319C144.556 18.8319 142.374 17.185 142.374 14.0626H140.841C140.841 15.9589 141.605 20.3644 148.671 20.3644C155.508 20.3644 156.037 16.5512 156.037 15.3874C156.048 13.5431 154.51 10.0571 148.686 10.0311Z" fill="black"/>
<path d="M39.2848 12.6235C39.2848 15.6627 36.8118 18.1357 33.7726 18.1357C30.7334 18.1357 28.2604 15.6627 28.2604 12.6235V2.00439H26.7278V12.6235C26.7278 16.5096 29.8865 19.6682 33.7726 19.6682C37.6587 19.6682 40.8173 16.5096 40.8173 12.6235V2.00439H39.2848V12.6235Z" fill="black"/>
<path d="M57.3691 1.93164L51.9504 1.94721V19.6163H57.047C61.9617 19.6163 66.0296 15.7874 66.1127 11.0805V10.8727C66.1127 8.32697 65.2452 6.15538 63.5307 4.43056C61.941 2.82002 59.7486 1.93164 57.3691 1.93164ZM57.047 18.0837H53.4831V3.47981L57.3744 3.46424C59.3382 3.46424 61.1409 4.19158 62.4448 5.50598C63.8631 6.93987 64.5802 8.74261 64.5802 11.0441C64.5126 14.925 61.1305 18.0837 57.047 18.0837Z" fill="black"/>
<path d="M87.5121 2.01473L79.8076 9.7141L72.0458 1.95239L70.96 3.03301L79.0283 11.1012V19.6007H80.5608V11.1272L88.5927 3.09535L87.5121 2.01473Z" fill="black"/>
<path d="M97.0351 18.1929V11.7093H107.197V10.1766H97.0351V3.54749H108.688V2.01489H95.5024V19.7359L108.704 19.6892L108.693 18.1617L97.0351 18.1929Z" fill="black"/>
</g>
<defs>
<clipPath id="clip0_25_238">
<rect width="156.628" height="20.16" fill="white" transform="translate(0.879883 0.640015)"/>
</clipPath>
</defs>
</svg>
