<svg width="157" height="21" viewBox="0 0 157 21" fill="none" xmlns="http://www.w3.org/2000/svg">
<path d="M13.8829 16.763L1.65327 1.31764H0.525879V18.9608H2.05848V4.29452L13.6751 18.9608H15.4155V1.31244H13.8829V16.763Z" fill="white"/>
<path d="M123.996 9.39107C120.406 9.37548 118.588 8.27408 118.588 6.10766C118.588 4.98029 119.118 2.3619 124.033 2.3619C125.955 2.3619 127.384 2.83465 128.277 3.76979C129.368 4.90756 129.316 6.3934 129.311 6.409L130.075 6.44537L130.839 6.48694C130.844 6.40381 130.937 4.35685 129.4 2.73075C128.205 1.4683 126.397 0.824097 124.028 0.824097C117.554 0.824097 117.05 4.86602 117.05 6.10249C117.05 7.88966 117.949 10.8925 123.986 10.9185C129.753 10.9444 129.82 14.5863 129.82 14.7422C129.82 16.9345 127.695 18.1919 123.991 18.1919C119.871 18.1919 117.689 16.545 117.689 13.4226H116.157C116.157 15.3189 116.92 19.7244 123.986 19.7244C130.818 19.7244 131.348 15.9112 131.348 14.7474C131.353 12.903 129.815 9.41704 123.996 9.39107Z" fill="white"/>
<path d="M147.806 9.39107C144.216 9.37548 142.398 8.27408 142.398 6.10766C142.398 4.98029 142.928 2.3619 147.843 2.3619C149.765 2.3619 151.194 2.83465 152.087 3.76979C153.178 4.90756 153.126 6.3934 153.121 6.409L153.885 6.44537L154.648 6.48694C154.654 6.40381 154.747 4.35685 153.209 2.73075C152.014 1.4683 150.206 0.824097 147.837 0.824097C141.364 0.824097 140.86 4.86602 140.86 6.10249C140.86 7.88966 141.759 10.8925 147.796 10.9185C153.568 10.9444 153.63 14.5863 153.63 14.7422C153.63 16.9345 151.505 18.1919 147.796 18.1919C143.676 18.1919 141.494 16.545 141.494 13.4226H139.961C139.961 15.3189 140.725 19.7244 147.791 19.7244C154.628 19.7244 155.158 15.9112 155.158 14.7474C155.168 12.903 153.63 9.41704 147.806 9.39107Z" fill="white"/>
<path d="M38.4052 11.9835C38.4052 15.0228 35.9322 17.4958 32.893 17.4958C29.8538 17.4958 27.3808 15.0228 27.3808 11.9835V1.36444H25.8481V11.9835C25.8481 15.8696 29.0069 19.0282 32.893 19.0282C36.7791 19.0282 39.9377 15.8696 39.9377 11.9835V1.36444H38.4052V11.9835Z" fill="white"/>
<path d="M56.489 1.29163L51.0703 1.3072V18.9763H56.1669C61.0816 18.9763 65.1494 15.1474 65.2326 10.4405V10.2326C65.2326 7.68696 64.3651 5.51537 62.6505 3.79054C61.0608 2.18001 58.8685 1.29163 56.489 1.29163ZM56.1669 17.4436H52.6029V2.8398L56.4943 2.82423C58.458 2.82423 60.2608 3.55157 61.5647 4.86597C62.983 6.29986 63.7001 8.10259 63.7001 10.4041C63.6325 14.2849 60.2504 17.4436 56.1669 17.4436Z" fill="white"/>
<path d="M86.6322 1.37478L78.9277 9.07414L71.1659 1.31244L70.0801 2.39306L78.1484 10.4613V18.9608H79.6809V10.4873L87.7128 2.4554L86.6322 1.37478Z" fill="white"/>
<path d="M96.1552 17.5529V11.0692H106.317V9.53663H96.1552V2.90748H107.808V1.37488H94.6226V19.0959L107.824 19.0492L107.813 17.5217L96.1552 17.5529Z" fill="white"/>
</svg>
