<svg width="166" height="20" viewBox="0 0 166 20" fill="none" xmlns="http://www.w3.org/2000/svg">
<mask id="mask0_271_224" style="mask-type:luminance" maskUnits="userSpaceOnUse" x="0" y="0" width="166" height="20">
<path d="M165.129 0.51123H0.0205078V19.0997H165.129V0.51123Z" fill="white"/>
</mask>
<g mask="url(#mask0_271_224)">
<path d="M96.8682 8.3777L103.241 1.81458H106.545L99.1226 9.26245L106.595 18.2599H103.241L97.373 10.962L96.8733 11.4618V18.2649H94.374V1.81458H96.8733L96.8682 8.3777Z" fill="white"/>
<path d="M123.401 14.296H116.372L114.572 18.265H111.858L120.046 0.854858L127.839 18.265H125.129L123.401 14.296ZM122.4 11.9267L119.951 6.35329L117.407 11.9267H122.4Z" fill="white"/>
<path d="M136.791 11.1619L131.389 1.81458H134.233L138.031 8.4027L141.826 1.81458H144.73L139.326 11.1619V18.2649H136.826L136.791 11.1619Z" fill="white"/>
<path d="M159.8 14.296H152.772L150.967 18.265H148.257L156.446 0.854858L164.223 18.265H161.524L159.8 14.296ZM158.8 11.9267L156.346 6.35329L153.807 11.9267H158.8Z" fill="white"/>
<path d="M5.68895 11.222L0.270508 1.76965H1.50515L6.2688 10.1073L11.1174 1.76965H12.3521L6.76865 11.222V18.2699H5.68895V11.222Z" fill="white"/>
<path d="M34.2608 10.0572C34.2709 11.1811 34.0561 12.2955 33.6289 13.3351C33.2016 14.3745 32.5708 15.318 31.7732 16.1098C30.9758 16.9017 30.0278 17.5261 28.9853 17.946C27.9429 18.3658 26.8269 18.5728 25.7032 18.5548C24.5786 18.5755 23.4611 18.3705 22.4171 17.9517C21.3732 17.5328 20.4238 16.9087 19.6253 16.1163C18.8269 15.324 18.1956 14.3794 17.7689 13.3387C17.3419 12.2979 17.1285 11.1821 17.1406 10.0572C17.1946 7.82278 18.1202 5.69801 19.7196 4.13675C21.3191 2.57551 23.4656 1.70154 25.7006 1.70154C27.9359 1.70154 30.0823 2.57551 31.6818 4.13675C33.2812 5.69801 34.2068 7.82278 34.2608 10.0572ZM33.1211 10.0572C33.1468 9.06657 32.9739 8.0808 32.6125 7.15801C32.2512 6.23525 31.7088 5.39418 31.0172 4.6844C30.3256 3.97462 29.4988 3.41052 28.5856 3.02535C27.6726 2.64018 26.6918 2.44174 25.7006 2.44174C24.7096 2.44174 23.7288 2.64018 22.8156 3.02535C21.9026 3.41052 21.0759 3.97462 20.3842 4.6844C19.6926 5.39418 19.1502 6.23525 18.7888 7.15801C18.4275 8.0808 18.2546 9.06657 18.2803 10.0572C18.2546 11.0479 18.4275 12.0336 18.7888 12.9565C19.1502 13.8793 19.6926 14.7204 20.3842 15.4301C21.0759 16.1398 21.9026 16.704 22.8156 17.0891C23.7288 17.4743 24.7096 17.6727 25.7006 17.6727C26.6918 17.6727 27.6726 17.4743 28.5856 17.0891C29.4988 16.704 30.3256 16.1398 31.0172 15.4301C31.7088 14.7204 32.2512 13.8793 32.6125 12.9565C32.9739 12.0336 33.1468 11.0479 33.1211 10.0572Z" fill="white"/>
<path d="M42.4785 1.76965V12.0867C42.4785 13.6462 42.5535 14.6609 43.1682 15.6508C44.133 17.2104 45.9425 17.5552 47.0021 17.5552C48.0618 17.5552 49.8712 17.2104 50.8361 15.6508C51.456 14.6509 51.531 13.6513 51.531 12.0867V1.76965H52.6205V12.0867C52.6205 13.8912 52.5205 15.0858 51.6808 16.3155C50.4412 18.1249 48.4868 18.5448 47.0021 18.5448C45.5175 18.5448 43.5631 18.1249 42.3285 16.3155C41.4888 15.0808 41.3887 13.8912 41.3887 12.0867V1.76965H42.4785Z" fill="white"/>
<path d="M68.9457 18.2698L63.6023 10.4771H63.1024V18.2698H62.0127V1.77454H64.3871C65.6467 1.77454 66.7863 1.87449 67.8861 2.61929C68.4427 3.01916 68.8903 3.55206 69.1881 4.16938C69.4858 4.78669 69.6241 5.46874 69.5906 6.15328C69.5906 7.78781 68.8758 9.47234 66.8213 10.1521C66.1673 10.3706 65.4814 10.4787 64.7918 10.4721L70.1854 18.2648L68.9457 18.2698ZM63.1124 9.49232H64.692C67.0413 9.49232 68.4558 8.25269 68.4558 6.12829C68.4558 4.46877 67.6361 3.60401 66.9914 3.25911C66.2056 2.90934 65.3518 2.73861 64.4921 2.75925H63.1324L63.1124 9.49232Z" fill="white"/>
<path d="M84.9713 10.4172L82.8719 5.0437L80.4076 10.2572C80.2272 10.5946 80.128 10.9694 80.1177 11.3519C80.0966 11.69 80.1434 12.0289 80.2556 12.3486C80.3676 12.6683 80.5427 12.9622 80.7703 13.2132C80.9979 13.464 81.2736 13.6667 81.5809 13.8092C81.8883 13.9517 82.221 14.0312 82.5596 14.0429C82.8982 14.0546 83.2356 13.9983 83.552 13.8773C83.8685 13.7564 84.1575 13.5731 84.4019 13.3386C84.6463 13.104 84.8412 12.8228 84.975 12.5116C85.1089 12.2004 85.179 11.8656 85.1813 11.5269C85.1969 11.1458 85.125 10.7662 84.9713 10.4172Z" fill="white"/>
</g>
</svg>
