<svg width="167" height="20" viewBox="0 0 167 20" fill="none" xmlns="http://www.w3.org/2000/svg">
<g clip-path="url(#clip0_26_246)">
<mask id="mask0_26_246" style="mask-type:luminance" maskUnits="userSpaceOnUse" x="0" y="0" width="166" height="20">
<path d="M165.637 0.51123H0.52832V19.0997H165.637V0.51123Z" fill="white"/>
</mask>
<g mask="url(#mask0_26_246)">
<path d="M97.3755 8.3777L103.749 1.81458H107.053L99.6299 9.26245L107.103 18.2599H103.749L97.8803 10.962L97.3806 11.4618V18.2649H94.8813V1.81458H97.3806L97.3755 8.3777Z" fill="black"/>
<path d="M123.908 14.296H116.88L115.08 18.265H112.366L120.554 0.854858L128.347 18.265H125.637L123.908 14.296ZM122.908 11.9267L120.459 6.35329L117.914 11.9267H122.908Z" fill="black"/>
<path d="M137.299 11.1619L131.896 1.81458H134.74L138.539 8.4027L142.333 1.81458H145.238L139.833 11.1619V18.2649H137.334L137.299 11.1619Z" fill="black"/>
<path d="M160.308 14.296H153.279L151.475 18.265H148.765L156.953 0.854858L164.731 18.265H162.032L160.308 14.296ZM159.308 11.9267L156.853 6.35329L154.315 11.9267H159.308Z" fill="black"/>
<path d="M6.19652 11.222L0.778076 1.76965H2.01272L6.77636 10.1073L11.625 1.76965H12.8597L7.27622 11.222V18.2699H6.19652V11.222Z" fill="black"/>
<path d="M34.7681 10.0572C34.7782 11.1811 34.5634 12.2955 34.1362 13.3351C33.709 14.3745 33.0781 15.318 32.2805 16.1098C31.4831 16.9017 30.5351 17.5261 29.4927 17.946C28.4502 18.3658 27.3342 18.5728 26.2105 18.5548C25.086 18.5755 23.9684 18.3705 22.9244 17.9517C21.8805 17.5328 20.9311 16.9087 20.1327 16.1163C19.3342 15.324 18.703 14.3794 18.2762 13.3387C17.8492 12.2979 17.6358 11.1821 17.648 10.0572C17.702 7.82278 18.6275 5.69801 20.227 4.13675C21.8264 2.57551 23.973 1.70154 26.208 1.70154C28.4432 1.70154 30.5897 2.57551 32.1891 4.13675C33.7885 5.69801 34.7141 7.82278 34.7681 10.0572ZM33.6284 10.0572C33.6541 9.06657 33.4812 8.0808 33.1198 7.15801C32.7585 6.23525 32.2161 5.39418 31.5245 4.6844C30.833 3.97462 30.0061 3.41052 29.093 3.02535C28.18 2.64018 27.1991 2.44174 26.208 2.44174C25.217 2.44174 24.2361 2.64018 23.323 3.02535C22.41 3.41052 21.5832 3.97462 20.8915 4.6844C20.2 5.39418 19.6575 6.23525 19.2961 7.15801C18.9348 8.0808 18.762 9.06657 18.7877 10.0572C18.762 11.0479 18.9348 12.0336 19.2961 12.9565C19.6575 13.8793 20.2 14.7204 20.8915 15.4301C21.5832 16.1398 22.41 16.704 23.323 17.0891C24.2361 17.4743 25.217 17.6727 26.208 17.6727C27.1991 17.6727 28.18 17.4743 29.093 17.0891C30.0061 16.704 30.833 16.1398 31.5245 15.4301C32.2161 14.7204 32.7585 13.8793 33.1198 12.9565C33.4812 12.0336 33.6541 11.0479 33.6284 10.0572Z" fill="black"/>
<path d="M42.9863 1.76965V12.0867C42.9863 13.6462 43.0613 14.6609 43.6761 15.6508C44.6408 17.2104 46.4503 17.5552 47.5099 17.5552C48.5696 17.5552 50.3791 17.2104 51.3439 15.6508C51.9638 14.6509 52.0388 13.6513 52.0388 12.0867V1.76965H53.1283V12.0867C53.1283 13.8912 53.0283 15.0858 52.1886 16.3155C50.9491 18.1249 48.9946 18.5448 47.5099 18.5448C46.0253 18.5448 44.0709 18.1249 42.8363 16.3155C41.9966 15.0808 41.8965 13.8912 41.8965 12.0867V1.76965H42.9863Z" fill="black"/>
<path d="M69.4535 18.2698L64.1101 10.4771H63.6102V18.2698H62.5205V1.77454H64.8949C66.1545 1.77454 67.2941 1.87449 68.3939 2.61929C68.9505 3.01916 69.3981 3.55206 69.6959 4.16938C69.9937 4.78669 70.1319 5.46874 70.0984 6.15328C70.0984 7.78781 69.3836 9.47234 67.3291 10.1521C66.6751 10.3706 65.9892 10.4787 65.2997 10.4721L70.6932 18.2648L69.4535 18.2698ZM63.6202 9.49232H65.1998C67.5491 9.49232 68.9637 8.25269 68.9637 6.12829C68.9637 4.46877 68.1439 3.60401 67.4992 3.25911C66.7134 2.90934 65.8597 2.73861 64.9999 2.75925H63.6402L63.6202 9.49232Z" fill="black"/>
<path d="M85.4789 10.4172L83.3794 5.0437L80.9152 10.2572C80.7347 10.5946 80.6356 10.9694 80.6253 11.3519C80.6042 11.69 80.651 12.0289 80.7632 12.3486C80.8752 12.6683 81.0503 12.9622 81.2779 13.2132C81.5054 13.464 81.7812 13.6667 82.0884 13.8092C82.3959 13.9517 82.7286 14.0312 83.0672 14.0429C83.4057 14.0546 83.7432 13.9983 84.0596 13.8773C84.376 13.7564 84.665 13.5731 84.9094 13.3386C85.1539 13.104 85.3487 12.8228 85.4826 12.5116C85.6164 12.2004 85.6866 11.8656 85.6889 11.5269C85.7044 11.1458 85.6326 10.7662 85.4789 10.4172Z" fill="black"/>
</g>
</g>
<defs>
<clipPath id="clip0_26_246">
<rect width="165.714" height="20" fill="white" transform="translate(0.507812)"/>
</clipPath>
</defs>
</svg>
